<svg fill="none" height="500" viewBox="0 0 500 500" width="500" xmlns="http://www.w3.org/2000/svg"><path clip-rule="evenodd" d="m120.636 53.0759c-.261.7976-11.642 75.3441-11.521 75.4651.205.204 100.524 3.392 100.719 3.2.09-.092 2.888-16.293 6.216-35.9899 3.504-21.1297 6.189-35.8103 6.518-38.2178-.482.2602-101.14-5.4447-101.932-4.4574zm235.867 66.3701c.319-.401 2.854 117.579 3.122 117.098.124.124 81.14 11.983 81.225 11.888.142-.138-4.72-127.32-4.873-127.471 1.167-.671-78.562-3.956-77.485-4.36l-2.133-.153zm-228.801 28.924c-30.5408.243-55.5555.486-55.5725.51-.0999.151.9966 84.32 1.0989 84.415-.8528.306 80.9116 2.261 80.0316 2.463l2.193.129c1.625-4.864 4.873-14.591 6.491-19.454 11.209-11.352 12.995-10.292 26.467-11.882.305 1.702 2.052-54.958 2.14-54.323l.146-2.371c-7.89.07-27.885.24-62.975.513zm92.749 31.37.061 29.752c3.898 1.477 8.737 2.734 12.426 4.334 4.282 2.106 7.863 2.799 11.811 4.418 3.007 1.228 4.958 2.097 7.553 4.392 1.526 1.415 4.333 3.018 5.727 4.428 12.792.596 68.206 3.334 71.259 3.325.108-.102-.923-75.517-1.035-75.628 1.23-.465-106.192-4.295-105.127-4.621l-2.746-.155z" fill="#f7f5f2" fill-rule="evenodd"/><path clip-rule="evenodd" d="m211.759 152.835c-3.482.947-6.887 2.16-10.182 3.628-4.732 2.364-13.339 12.298-11.66 20.748.622 5.211.617 5 .069 4.706-1.95-2.021-2.374.71-2.581 3.63-.127 2.507 2.317 7.135 4.42 8.555.583.45.838 1.24 2.193 6.765l.926 3.77c3.938.863 17.113 1.945 19.493 3.034 2.581.715 8.607 1.946 10.361 2.885 2.193.749 6.676 1.928 8.772 2.713.607 0 4.011-3.647 4.707-5.031.697-1.384.792-1.739 1.526-6.111.792-5.98 3.382-10.539 1.462-16.801-.546-2.468-.583-2.93-.341-4.482.463-2.969.17-5.44-1.092-9.241-3.762-11.604-7.924-16.477-19.595-19.14-3.409-.644-4.767-.586-8.478.372zm120.371 101.264c-4.72 1.841-8.575 4.863-14.011 6.359-1.784.462-6.896 2.41-9.532 3.161-2.295.676-5.797 3.303-7.778 1.189-3.141-2.013-4.937-2.234-7.514-3.489-1.501-.79-3.858-1.858-5.512-2.59-5.604 6.619-9.186 11.033-13.835 16.198-2.228 2.318-2.315 2.451-1.925 2.884 4.081 2.15 8.64 6.43 12.714 7.444 9.284 2.855 14.111 5.622 24.488 2.787 3.957-.545 8.748-2.933 17.724-8.833 5.478-3.599 5.035-3.465 11.063-3.326 7.2.168 8.024-.119 8.738-3.023.974-2.361-.848-5.836-1.523-7.351-.439-1.637.353-2.853-1.15-4.898l-.839-1.391c.305-.117 1.197-.401 1.197-.693 0-.379-1.976-2.522-3.009-3.263-1.83-1.141-6.679-2.208-9.296-1.165z" fill="#ad785c" fill-rule="evenodd"/><path clip-rule="evenodd" d="m214.927 147.298c-4.829 1.036-12.144 1.86-16.464 4.411-3.168 1.447-7.815 8.042-8.529 11.541-.731 3.142-1.128 9.209-.731 11.306.427 1.14.115 4.508.96 4.98.322.082.549.615.863 2.028.919 3.307 2.451 8.445 3.063 11.672.356 1.056.685 3.872 1.252 5.005 1.538 2.94 5.826 3.353 9.089 3.22 2.483-.192 13.779-.244 18.031-.244 1.046-2.944 1.915-6.174 1.84-8.185.487-4.241-.105-12.348 3.777-12.606 2.295-.088 2.816 3.178 3.331 5.107.065.552.192.615 1.354.68 1.499.088 1.599-.051 1.874-2.626.487-4.472 2.193-9.421 4.164-11.937 1.299-1.618 1.148-2.257 1.989-3.95 1.99-4.773-.349-9.807-4.978-14.97-1.623-2.546-5.756-2.332-8.163-3.579-2.719-2.172-9.108-2.179-12.722-1.853z" fill="#7a3b24" fill-rule="evenodd"/><g fill="#1e1919"><path clip-rule="evenodd" d="m139.886 55.9346c-.975 1.1745-6.531 1.96-8.178.5715-.548-.321-.826-.3162-2.488.0243-1.268.2879-2.567.4177-3.867.3866 1.482 3.5018 4.191.1654 7.527 1.4883 2.225 1.4809 6.114-.3551 8.37.4012.699.7296 5.724-.5885 7.605-.9435 1.625 2.1375 2.839 2.3077 7.044.5763.502-.2091.914-.4717.914-.5836 0-.2626-1.06-1.3837-1.379-1.7412-1.109.428-3.411 1.3205-4.281 1.4591-1.092.5131-1.54-1.4591-2.223-1.7582-.097-.2213-6.289 1.1162-6.367 1.0506-.723-1.5466-1.661-1.7874-2.677-.9314zm48.489.2602c-.487 0-2.437 1.0967-2.802 1.104-.907-.1824-5.183 2.3272-6.701 2.9181-1.628.5812-1.73.7028-1.233 1.4591.443.676.339.6663 2.437.2189 1.581-.5666 4.256-1.9746 6.335-2.6288 5.531-1.9211 5.621-1.9673 4.873-2.5849-.499-.4378-2.02-.6882-2.916-.5034zm11.087.0511c3.725 7.001 4.629 5.1796 12.427 6.0794.017-.5885-.015-1.4348-.385-1.8919-.731-1.3837-9.633.4863-10.561-2.799-1.099-1.5515-1.489-1.9187-1.489-1.3983zm-10.702 14.3863c-2.966 1.7217-8.955 5.5615-11.716 5.812-1.554.1434-3.411.8195-3.411 1.245.363 1.0141.38 1.2743 2.215.9168.858-.1459 2.22-.3672 3.024-.4863 2.924-.1557 8.657-4.2435 11.769-5.2989 1.235 2.9352 3.333 6.5658 6.335 6.6558 1.014.0948 1.304 0 2.383-.7295 1.511-1.0603 3.029-1.6731 4.498-2.7163 1.082-.8925 5.027-2.1886 6.645-1.7533.831.2091.889-.2748.171-1.4323-1.321-2.4026-6.224-.4183-8.399.8657-4.118 1.9308-4.796 4.4842-8.219 2.9424-1.911-.3672-3.631-7.9543-5.302-6.0308zm-58.826 3.4945c-.684.5155-6.927 1.8506-7.47 2.3929.731 2.5703 3.167.8973 6.291.3161 1.255 2.05 4.386.9873 7.23.2772 1.34 1.5904 2.95 2.0305 5.202 1.2962 2.383-.6809 2.478.3331 4.914-.1435 3.041-.5861 2.846 1.3131 6.058.0632 1.396-.4231 1.608-.4353 2.11-.107.546.3575 2.746.4256 3.27.1021 0-3.1321-2.578-.817-3.526-2.3491-.487-.6103-.548-.6249-1.108-.2675-.327.2067-1.384.5642-2.354.7952-2.571.8682-2.071-.5593-4.142-.4109-1.309.0948-.817-.1313-1.533-.8901-1.426-1.7168-3.107 1.1503-4.669 1.4032-1.506.3477-2.154.321-2-.0827.153-.4037-.69-1.2913-1.004-1.6487-1.104.2431-5.943 1.3836-6.206 1.3423.309-.3988 1.881-.6104 1.116-1.5101-.597-1.1381-.885-1.2159-2.186-.5885zm60.748 16.3561c-1.186.1313-6.688 1.7582-8.026 2.5339-4.812 2.3807-4.305 4.134-12.169 6.1135-.584.1775-1.176.2553-1.315.1702-.627-.3502 1.062 1.7626 1.462 1.6216 3.026-.515 7.955-1.7189 10.614-3.8685 2.012-1.3472 4.442-2.4318 7.463-3.3316 1.516-.5714 2.454-.4523 2.948-1.104 0-.124.222-.1046.488.0389 1.501.2432 1.866-.3745 4.101 1.4591 1.869 1.5952 3.835 1.7679 5.563 3.458 1.31 1.2377 2.736 1.9186 3.606 1.7217 2.025-.3818 3.087-.1046 1.418-2.4756-1.35-1.9697-3.541 1.267-5.76-1.4591-2.103-2.067-3.482-1.8627-5.644-3.4312-.67-.4985-1.488-1.0894-1.82-1.3107-.672-.445-2.929-.5545-2.929-.1362zm-68.413 2.7966c-1.294 1.2937-3.636 1.3301-4.898 1.7022.716 3.1029 4.939 1.5247 7.066-.1411 2.61 3.5285 5.261.0463 7.025 1.5685 2.288 2.1886 4.491-.1556 7.539.1946 2.646.8146.685-2.2567-.975-2.0111-1.462-.3745-5.76 1.4591-6.274.535-.102-.3332-.863-1.1989-1.191-1.5709-7.008 1.5174-3.573 1.6293-6.808-1.3837zm25.828 2.5922c-1.874.5545 1.879 3.3802 1.889 1.8239.004-.5739-1.177-2.4245-1.884-1.8239zm-31.676 12.9244c-1.633.45-6.443-.291-5.332 1.01 2.193 1.062 38.256.411 38.158.989 20.531.433 43.066.9 63.714 1.703 2.436 0 .314-2.948-.619-2.877l-2.179.214c-16.225.958-70.565-1.751-93.73-1.039zm-3.711 7.344c-2.522 1.35-2.554 1.377-2.193 2.046.28.52.514.539 1.53.124 1.028-.645-1.528 2.709 2.639 3.282 1.218 0 2.41-1.247 1.647-1.728-.168-.244-2.744-.163-2.89-.346 0-.292.88-1.5 1.652-2.271.773-.771.797-.873.529-1.52-.626-1.43-1.145-.28-2.914.413zm19.266 1.601c-1.805 2.502-3.282 2.998-5.848 4.277.125 3.336 4.903-1.364 6.438-.255 2.605 1.089 5.485-1.17 6.07.141 1.237 1.787 3.898.834 6.06.141 2.056-.195 1.401-2.473-.052-2.264-1.481.596-4.917 1.481-5.031 1.296.465-.783 2.88-1.347 2.819-2.432-1.075-4.89-2.132 1.493-9.381 1.792l.67-.712c1.406-1.235.156-4.455-1.745-1.984zm30.198.634c-1.674 1.362-3.916 3.969-5.7 4.458-1.515.367-.536.989 0 1.729.807-.321 3.309-1.703 3.614-1.129 1.043 1.36 5.241-.656 6.428-.403 1.347 2.125 5.745.031 6.822-1.107.095-.333-.789-1.291-1.089-1.636-.826.391-2.607 1.24-3.238 1.403-.529.141-.514.112.122-.243.402-.222.767-.436.811-.475-1.218-5.106-3.246.207-6.964.623-2.585.674 2.924-1.977.853-3.509l-.563-.628zm-41.784.299c-.183.295.529 1.703.863 1.703 1.025-.032-.125-2.77-.863-1.703zm31.269 1.085c-.523 2.378.666 2.42 2.193 1.048-.346-.353-1.522-1.61-1.756-1.639-.093-.007-.288.258-.437.584zm41.977 1.16-2.284 1.245c-1.164-1.659-.533-.486-1.878-.683-.695-.406-2.466 1.138-2.807.289-.293-.401-.427-.36-1.923.576-1.398.876-1.574 1.065-1.359 1.459.309.577.243.582 1.678-.138 1.063-.538 1.219-.56 1.501-.221.787.729 4.026-.543 4.033.218-.075 1.442 4.116-1.271 4.525-1.342.075 0 .205.367.29.817.616 3.39 4.003.486 5.892 1.17.689.243 1.023.243 1.986-.097 2.078-.713 2.256-.73 2.256-.334 0 .834 1.503 1.117 2.68.504 1.326-.642.826-2.918-.931-1.814l-1.018.459c-.292-3.292-3.141.17-3.655-1.52-.031-.242-.151-.465-.339-.622-.263-.219-.487-.151-1.043.311-.765.645-3.55 1.856-4.264 1.856-.538 0-.563-.244-.087-.866.665-.88.304-2.549-.551-2.529-.229.005-1.445.571-2.702 1.255zm-16.984.632c-.775.457-.209 2.264.877 1.262.607-.617 1.579-.189.731-1.092-.677-.719-.923-.746-1.608-.177zm190.687 8.188c.027.54-.621.18-.263.79.275.513.938 7.074 1.123 11.126.668 6.765 1.073 17.842 1.219 24.728.204 3.726.209 3.731 3.526 4.832 1.917.637 2.924.805 5.848.988 3.757.184 6.598.676 9.887.52 1.406-.085 2.362 0 3.329.272 1.613.545 5.322.244 6.886.793.731.601 8.172.141 9.042.601 2.42.569 12.442.87 16.786 1.556 5.561.559 3.431-1.702 3.867-7.419-.029-5.287-.29-9.355-.716-11.186-.395-4.159-.702-10.571-1.318-14.99-.212-13.032-3.109-12.144-15.407-11.016-8.241.243-10.897-1.026-25.168-.873-5.873-.012-7.457-.693-13.187-.562-3.115.061-4.245 0-4.457-.221-.392-.418-.997-.382-.997.061zm14.986 2.069c2.743.448 18.925.312 25.584.912 3.412 1.136 10.785-.729 14.491-.428.587 1.216.704 2.208.836 4.314.224 6.226.923 8.956 1.104 13.908.287 6.58 2.22 19.529.826 24.213-1.543-.042-4.345-.107-5.539-.401-3.36-.506-11.951-.606-13.545-1.177-1.684-.487-6.959.189-8.626-.521-1.64-.581-5.161-.243-6.603-.729-6.092-.73-18.762-.282-18.855-1.887-.702-7.782-1.033-17.648-1.998-25.687-.156-2.612-1.145-10.581-1.442-12.609 3.703-.141 7.943-.474 13.767.09zm-1.93 2.831c-.841 2.952 2.193 2.454 1.182.457-.48-.732-.999-.934-1.182-.457zm-4.681.445c-.197.513.444 1.673.989 1.785 1.172.241-.592-2.901-.989-1.785zm-3.989.343c0 .326 1.372 1.729 1.691 1.729.802.211-1.569-2.736-1.691-1.729zm20.312 6.836c-1.93.442-6.018 3.995-8.126 7.052-1.669 2.431-3.918 3.998-6.959 4.863-1.506.608-2.322.144-1.182 1.442 1.092 1.724 5.288-.486 6.462-1.019 2.503-1.366 5.431-6.244 7.863-7.711.838-.712 1.204-.834 2.093-1.517 1.816-1.685 7.327.087 8.965 2.884 2.68 3.441 3.672 6.685 8.097 9.056.847.443 1.543 1.128 2 1.967.731 1.301 3.358 3.648 4.091 3.648.424.085 4.096-1.702 4.476-1.702 1.311-.047.785-1.635-.185-2.646-.636-.596-.487-.632-3.752.865-.64.315-1.3.586-1.976.813-.488 0-2.089-1.559-2.951-2.892-.924-1.425-1.36-1.785-4.142-3.416-3.044-2.145-4.542-5.917-7.018-8.604-1.901-1.977-5.809-3.536-7.756-3.083zm-177.495 5.68c-.858.927-5.402 6.284-5.585 4.409.631-2.551 5.027-7.446-1.649-2.675-1.813 1.08-3.572 2.967-3.127 1.459.368-.559-.833-1.425-.828-.712-.024.52-1.218 2.728-1.949 2.529-1.287-.397-6.489 4.177-5.956 2.125 1.009-3.473 8.772-5.632 6.077-5.16-2.127.187-7.729 3.38-6.99 5.707.392.134 1.386.513.602 1.099-.832.931-1.583 1.931-2.245 2.989-.336 2.981 3.558.413 7.474-3.689 3.25-3.453 3.411-3.212 5.789-1.014-5.361.177-7.295 2.276-10.497 8.115-.731 1.413-.975 1.702-1.187 1.432-1.881-2.675-5.192 6.284-5.324 6.933-.309 1.345.751 1.561 1.833 1.644 1.135 0 1.13-.083.187 3.993-.399 1.729-.699 3.161-.667 3.198 1.586.671 2.68-.849 4.025-2.636.339-.504.641-.888.673-.851.085.036-.851 5.067-.69 5.106.1.26 1.598.051 1.535.516-.351 2.405-1.44 7.052-1.101 10.097-.244 6.967 2.853 5.512 4.983 1.279 1.072-2.204.706 0 1.201 2.072.395 2.781.429 2.879 1.031 2.949 1.262.38 2.331-2.188 2.809-3.557.383.841.27 1.605 1.601 1.371 1.15.341 2.166-1.994 2.785-2.41.097 0 .37.504.609 1.131 1.179 3.232 3.168 2.432 4.593-.486.731-1.318.717-1.644.88-.487.119.528.329 2.675.417 3.526.918 0 1.586.093 2.29-.802.694-.79 2.858-4.742 3.275-5.985.229-.683.083 4.1-.188 6.14-.151 1.136-.136 1.173.422 1.095.994-.141 2.405-3.376 2.412-5.523-.066-1.43.748-.138.855.46.341 1.539 2.383 3.008 4.613 3.314 4.408.314 4.142-3.946.504-1.617-2.061 1.946-2.653-.69-3.579-2.247-.544-.566-.68-2.894-1.201-3.368-.595-.377-1.199-.243-1.409.326-.295 1.216-.414-1.133-.745-1.033-.11 0-.244-.219-.325-.487-.168-.924-1.776.061-1.257-1.269.344-.36-.273-5.885.731-5.297.487 0 .58.134.646 1.034.075 1.031.078 1.033 1.128 1.109 1.131.192 1.93-.589 2.778-1.235-.334 1.446-1.002 4.7.836 4.929.509 0 .604-.093.502-.487-.154-.583-.108-.591.823-.112 1.041.19.522 1.817.215 2.252-.1.039.08.613.399 1.277.463.956.707 1.216 1.179 1.216.561 0 .58-.044.334-.752-.314-.746-.051-3.185.059-4.301-2.374-1.102-4.279.537-2.512-3.232.716-1.822 1.311-.973 2.193-1.564-.02-.776-2.31-.343-2.859-.574 1.991-2.41 5.96-7.828 5.605-9.484 0-.552.628-1.308 3.277-3.954 4.654-4.418 4.778-5.413.487-8.309l1.192 1.235c1.113 1.155 1.184 1.301 1.06 2.22 0 .669-.975 2.508-.912 1.007.595-.78-3.669-5.413-1.581-2.3 1.591 1.921.855 4.805-2.037 5.35l-1.133.304c.397.017 1.874-.068 1.827.36 0 .316-1.829 2.108-2.151 2.103-.229 0-.953-1.52-1.255-1.459.032 1.077 1.767 1.719-.614 2.699-1.996.881-2.113.076-.336-2.339 1.559-2.634 2.68-1.026 2.117-2.138-1.489-5.067 1.613-5.199 3.066-8.82.73-1.785-5.939-.467-5.576-1.5.144-.807.975-2.918-.519-3.105-1.656-.691-2.867-1.717-4.576-1.625-.641.016-1.278-.096-1.876-.328-1.871-.859-.148.143.025.6 0 .244-2.617.993-3.504.993-1.236.014-.488-1.479.458-1.875.536-.302.821-.55.631-.552-.67-.085.914-.861.11-1.216-1.219-1.043-2.659 1.775-3.655 2.327-.613.404-1.192.858-1.73 1.357-1.187 1.077-5.768 3.696-4.567.854.319-1.083 1.233-2.189 4.701-5.671.163-.166-.532-.569-.975-.565-.195.003-.641.253-.987.557zm-5.585 1.724c-.034.214-1.294 2.459-1.218 2.729.402 1.298 3.073.182 2.527 1.517-.817 1.824 5.619 1.702.94 2.524-.635.049-1.267.145-1.888.287-1.413.042-3.511-3.779-5.731-3.574.86-.523 5.672-4.273 5.37-3.483zm17.788 2.918c.117 1.652-1.462-.08-.907-.435.644-.262.907-.136.907.433zm1.949.015c.568.557-.548.433-.487 0 .012-.576.158-.367.487-.002zm-8.93.486c.643.548 3.236-.029 1.913 1.046-.381.377-.539.396-1.158.141-.692-.301-2.229-.523-3.116-.635.899-.625 1.077-1.247 2.361-.554zm5.509.105c.487.931.29 1.892-.66 2.998-1.582 1.411-4.61 6.731-5.909 6.286-.232-.741 4.717-11.392 6.579-9.286zm5.173.321c.122-.136-.188 2.568-.261 1.398-.029-.36-.497-2.536.261-1.4zm-1.218 1.172c.024 2.855-2.054-.139-.875-.919.694-.506.955-.229.88.917zm-9.118-.297c1.218.392-3.675 6.068-4.091 4.57 0-.38-.897-1.659-1.219-2.138.843-2.349 3.37-3.057 5.315-2.434zm7.707 1.579c1.53 1.31.541 1.191-.894 2.371-1.652 1.126-3.526 2.971-5.395 5.318-.796.999-1.275 1.416-1.438 1.252-1.094-1.359 5.7-5.024 6.314-8.997.26-1.282.428-.645 1.418.053zm-22.032 0c-.651 2.332-4.496 6.833-6.876 8.431-2.079 1.561-2.773 1.814-2.491.899 1.433-3.825 4.71-9.433 9.184-9.885.105-.005.188.243.188.562zm-7.678.924c-1.737 1.585-3.351 2.869-3.606 2.872-.363 0 .657-1.459 1.773-2.522 1.131-1.235 4.52-2.658 1.838-.343zm9.627.06c0 .535-1.135 1.761-1.394 1.503-.131-.199 1.362-3.319 1.399-1.495zm2.883 1.051c-2.23 2.522-5.117 8.01-5.381 10.989l2.254.601c-.029 1.52.266 2.716-.95 3.913-.921 1.113-1.167 1.549-2.6 4.62-.592 1.269-.709 1.391-.938.995-.777-1.216-1.313-.973-1.045-3.198.504-3.706 1.881-5.909 2.475-10.552.161-.637.483-1.223.934-1.702 1.298-1.401 2.386-2.982 3.231-4.693.487-1.073.794-1.416 1.52-1.715 1.521-.632 1.638-.459.504.749zm21.976-.905c0 .368-.975.791-1.421.618-.987-.36 1.586-1.267 1.421-.618zm-19.737.995c-.753 1.945.516 1.756 1.218 2.651 0 .559-4.162 5.593-4.629 5.593-.39-.107-.147-2.111-.89-1.807-1.9.35 5.79-10.364 4.301-6.444zm2.003.168c.151.6-.129 1.588-.488 1.702-.628.491-.092-3.271.483-1.71zm17.617.048.974.156c-1.89.839-3.493 2.214-4.607 3.954-1.438 2.113-.385 1.44.577 1.921-.024.487-5.694 4.195-6.396 4.195-.619-1.799 5.339-7.093 6.116-8.929 1.53-2.508 1.43-1.455 3.331-1.292zm1.827-.124c0 .258-.468.365-.606.141-.222-.33.601-.284.601-.148zm-.243.961c0 .781-3.86 4.282-4.72 4.282-.585 0 1.949-3.015 3.326-3.951 1.096-.759 1.389-.83 1.389-.338zm-16.224 1.79c-.562 1.498-.731 1.109-1.437 1.512-.139.326.994.188 1.435 1.138.565.832.58.934.244 1.588-1.107 1.926 1.949.423.716 2.386-.331.559-.366.793-.144 1.014.434.686-.879 2.004-.916 3.122-1.17 4.395-3.382 3.682-6.216 1.459-.258-.644.388-4.968 1.006-6.733.636-1.814 2.025-3.723 2.732-3.752.375-.017.375-.03 0-.183-.826-.45.487-2.106 1.445-2.393 1.703-.773 1.771-.724 1.131.834zm47.532-.433c-.205 1.131.641 7.123.614 8.268-.063.953.487 1.87.714 2.495-.643.26-12.32.121-13.026.418-2.276.501-6.95.049-9.311-.148 2.456 4.343 15.712 1.257 23.443 1.724 8.855-.139 11.453-.28 17.493-.914.076 19.967-2.237 27.778-1.014 45.474-5.36.6-29.644-.372-30.409.192 2.13 1.379 2.281 1.301 6.742 1.323 4.557-.029 24.854.386 26.204-.277-.095-3.743-.858-10.075-.731-14.421 2.361.083 11.513.331 15.473.44-.056 1.96.355 10.406.014 12.449-.314 1.578-.482 3.181-.502 4.79-3.223-.649-6.917.542-10.355.414-5.181-.29-13.699 1.011-16.458-1.095-.146-.447-2.924-3.083-2.366-.7.244 2.091 1.633 2.918 5.468 3.261 3.314.214 4.913.902 8.134.501 1.218-.139 3.947-.243 6.045-.229 4.172.219 6.482-.827 9.82-.632 1.903.187 1.995.102 2.246-2.055.612-1.782.59-12.825-.114-16.585-.229-.408-.54-.764-.914-1.045-.616-.46-1.094-.487-8.501-.557l-7.849-.071c-.431-1.673-.117-3.579.319-7.032.006-.047.021-.091.045-.131.025-.04.057-.075.095-.102.039-.026.082-.044.128-.053.047-.009.094-.007.139.004 3.711.924 17.895-.214 23.183.467 6.803.155 5.18 1.877 5.402-5.231-.31-9.842-.663-16.651-1.382-26.932-.514-4.056.202-3.317-1.754-4.008-11.784-1.43-31.713-.685-46.881-.865zm-38.867-.662c.166-.138-3.899 4.018-1.969 1.703.8-1.041 1.969-2.055 1.969-1.703zm-20.68 1.087c-.338.63-1.737 2.347-1.737 2.133-.107-.039 2.437-3.703 1.737-2.133zm-99.325.467c-3.036.285-7.7045.832-11.5178.927-2.3124.08-4.3689.207-4.5687.284-.9747.171.4508 2.775 1.3182 2.607 1.0015-.763-.424 10.34-.2437 13.771 2.6267 29.777-6.8713 30.585 25.071 30.422 10.979.014 11.277.027 11.133.486-.38 2.658.487 5.515 3.265 6.539.918.465 28.47.868 28.782.166 0-.377-1.19-1.635-1.584-2.072-3.875-.202-24.9.311-28.373-.144-.37-.989-.531-4.134-.731-5.182 3.938-1.038 14.428-.613 21.345.095 1.241.153 1.265.143 1.689-.664.382-.794.629-1.646.731-2.522 1.413.044 3.699.132 4.92.265 2.543.487.487-1.374-.244-2.378l-4.678.168c-.037-.832-.11-2.51-.147-3.341.505.116 1.38.328 1.791.45 1.167.124-.355-1.143-1.096-1.25-1.058.27-.565-3.388-.67-4.492 1.16-.134 6.128.523 3.794-1.201-.402-.783-3.002-.401-4.143-.38-.161-.702-.424-1.945-.341-2.55.083-.606.103-.604 1.949-.526 1.596-.051 2.374.292 1.514-.878-.034-.809-3.258-.301-3.582.039-.38-1.267-.185-4.605-.507-6.247 5.806.316 15.005.219 20.18.812l-.036 8.806c-.034 8.19 0 8.868.421 9.705.171.377.4.724.678 1.031.411.255.487-2.206.307-10.313-.188-8.511-.288-9.263-1.394-10.483-.431-.475-2.722-.623-13.134-.842-3.484-.073-6.437-.243-6.564-.36-.395-.391-.599-11.011-.275-14.374.672-7.052-3.899-4.978-11.314-5.435-12.848-.185-21.778-1.06-33.745-.939zm206.645 3.485c.326 9.404.395 20.884.348 30.577-5.572-.547-15.365-1.114-20.955-.581-1.744.197-4.142-.16-5.97-.462.018-7.218.015-16.432-.36-22.616-2.571-.61-13.933-.355-18.536-.415.587-1.596-.913-8.298-.424-9.89 17.032.141 29.152-.219 45.69-.151zm-87.008-2.675c-.244.268-.487.433-.558.37-.307-.333 1.428-1.489.558-.37zm6.304.849c-.149.386-.575.506-.575.163-.054-.382.821-.871.575-.161zm41.381.367c-1.038.939-.104 2.553.59 1.595.592-.467.097-1.624.585-1.828.543-.321-.536-.927-1.175.233zm-4.919 0c-.276.17-.261.314.08.834.132.239.305.452.512.63.265 0 .853-.795.731-.992-.254-.421-.982-.681-1.323-.472zm8.433.134c-.244.613-.183 1.527.1 1.702 1.394.547.984-3.195-.095-1.707zm-158.536.486c8.453.35 23.285.866 31.333.919-.836 3.952-.597 22.438.205 26.871.224 1.075.37 3.77.424 7.84.08 6.043.207 8.439-2.071 8.159-.217 0-15.556-1.498-19.842-.275-4.963.973-29.1519.652-34.1275-.644-1.7836-14.909-1.752-22.944-1.1721-40.971.0293-.751.0756-.785 1.25-.912 8.4646-.333 14.3986-1.622 24.0056-1.004zm113.426.948c.563.942-3.048 6.109-2.802 4.242.032-.927.332-.759.371-1.858-.173-1.058 2.463-5.82 2.436-2.401zm-30.804-.372c-.626 1.404 1.599.623 1.353 1.382-1.414 4.491-1.034 9.795-5.317 13.618l.173-.608c-.1-.372 1.571-2.114.999-2.189-.502 0-1.248 1.116-1.886 2.819-.958 2.55-.902 1.196.185-4.521.397-2.281 2.171-5.7 2.602-7.954-.041-1.751 2.496-3.911 1.896-2.564zm-7.125.355c.278 1.141-1.057 2.722-1.318 4.475-.586 2.143-1.324 3.215-2.215 3.215-.974 0 .595-4.822 2.376-7.317.561-.788.773-.859 1.162-.39zm28.38.703c-.465.795-1.282 1.08-1.462.513.083-.51 2.853-2.585 1.467-.53zm-2.751-.445c0 .112-.487.504-.487.151-.034-.272.429-.333.487-.151zm9.235 1.355c-.217.528-.374 1.078-.468 1.641-.178.795-3.465 4.239-1.576.581.263-.514.467-1.056.606-1.617 0-.243 1.557-1.748 1.864-1.816-.119.41-.262.814-.426 1.208zm-21.306-.063c-.244 1.459-.37 1.763-.731 1.763-.621.269.487-2.432.368-2.493.305-.474.534-.012.363.73zm3.411 1.167c-.414.656-.431 5.065-.928 5.384-.302-.105-.331-2.554-.054-4.346.283-1.685 1.884-3.699.97-1.038zm-13.608-.693c-.488 1.682-1.66 6.772-2.99 8.341-1.606 2.56-2.505 3.681-2.507 3.127 0-.379.731-3.988 1.176-5.802.3-1.197 1.706-3.108 1.981-4.377.154-.601.315-1.216.359-1.343-.049-.26 2.246-.416 1.968.054zm23.148.462c-.568.42-.824.036-.354-.53.385-.572 1.031.155.329.53zm-121.5889-.387c-.4264.542.7164 1.766 1.3429 2.271.16-1.002-.544-3.321-1.3722-2.273zm-3.8134.773c-.095 1.97.0926 2.242.9016 1.304.7139-.829.731-.922.173-1.396-.9113-.756-1.0648-.744-1.1038.092zm8.6813-.243c-.404.705.344 3.405.975 1.391.344-.579-.709-2.123-1.004-1.383zm196.721-.177c-.027.082-7.254.243-7.257.515-.243.275.366 1.627.546 2.075l13.58-.156c.124-.856-.344-1.821-.848-2.573-1.148.027-5.743.054-6.05.146zm-78.441 1.758.561 1.148-1.862 1.702c-.142-1.077-.444-2.127-.894-3.115 0-.132 1.218-.849 1.462-.866.085-.01.397.506.704 1.138zm-12.914.243c-.28.863-.061 3.405-.685 3.891-.282.095-.312-.243-.165-2.033.168-2.084.433-3.025.848-3.025.085.027.087.547-.022 1.182zm16.25.715c-1.04 2.334-.975 3.086-1.552 1.299-.293-.827-.275-.866.843-2.002 1.584-1.578 1.403-1.269.685.718zm-1.633-.883c-.307.572-.626.625-.813.139-.405-.423 1.403-1.077.813-.139zm4.172.795c-.487.582 0-.646.168-.437.073.075 0 .272-.168.437zm-7.98 1.946c-.463.878-2.573 2.356-1.323.28.636-1.165.543-1.525 1.065-2.644.124.596.411 1.916.258 2.352zm8.428-1.33c.154 0-1.749 2.329-1.203 1.276.465-.95 1.228-1.76 1.213-1.288zm.415 2.217c-.422 1.627-3.899 6.447-4.479 6.503-.071-.068.066-.912.302-1.87-.195-1.486 3.64-5.107 4.286-6.182.31-.073.088.954-.109 1.537zm-5.627-.304c.378 1.571-.996 5.285-2.327 6.651-.07 0-.426-.671-.792-1.478-.665-1.459-.665-1.459-.216-2.364.257-.519.463-1.063.616-1.622.419-.955 2.602-3.781 2.719-1.199zm9.608-.892c.288 2.108-9.907 14.982-9.259 10.943 0-.837.18-1.172 1.279-2.371 2.349-2.561 3.994-5.107 4.695-7.281.398-1.216.439-1.267 1.421-1.354.758.029 1.552-.397 1.864.063zm66.669-.041c-.261.423.614 1.945 1.204 2.091 1.165.292 6.201.435 6.201.178-.326-1.926-1.511-1.676-3.533-1.982-1.547-.051-2.919-.696-3.872-.29zm-73.004.391c0 .112-.488.504-.488.151-.034-.272.429-.333.488-.151zm-.644.988c-.126.396-.604.547-.419 0 .125-.397.607-.548.419 0zm-81.715.389c-3.231.313-44.293.413-44.6271.107-.8236-.368 1.5501.938-3.1823.822-1.3645.114-3.0214-.093-1.5058.525 5.7502.284 12.4392-.319 27.6292-.17 27.778-.039 25.604 0 25.421-.518-.877-1.637-1.666-.805-3.735-.766zm65.385.802c.353.54.349.623-.095 1.133-.582.669-.731.557-.894-.729-.268-1.381.451-1.136.989-.404zm.892-.34c.044.632-.695-.2-.258-.244.033-.002.066.003.097.015.032.011.06.029.084.051.025.023.044.051.057.081.013.031.02.063.02.097zm9.145.423c-.405 1.853-1.267.649-.999 1.459.087.272.043.566-.095.652-.488.111-.222-.749-.39-1.263-.086-.656 0-.843.565-1.145.953-.503 1.109-.457.919.297zm5.806-.302c-.127.397-.604.547-.419 0 .124-.396.607-.547.419 0zm-19.308.917c-.487.581 0-.647.168-.438.073.076 0 .273-.168.438zm7.768.472c0 .343-.455-.022-.765-.613-.697-1.114.843.464.765.613zm-1.462-.294c.592 1.259-.58-.273-.382-.487.065 0 .238.219.382.487zm-4.537 1.116c.358 1.055.353 1.172-.105 2.067-.938 1.717-1.505 5.35-1.637 6.388-.136.083-.288-1.114-.375-2.952-.144-3.091-.144-3.096.636-4.864.862-1.648.838-2.553 1.481-.639zm4.23.343c.885 0 .366 1.335-.823 2.113-.624.406-.653.401-1.219-.243-.87-1.007-.96-1.717-.331-2.598l.543-.758c.39.362 1.491 1.486 1.83 1.486zm5.117.182c.405 1.641-.224 3.01-1.157.897l-.539-1.109c1.029-.943 1.357-2.045 1.691.212zm85.926-.411c.183 2.31 2.086 1.795 3.465 2.094.37.141.404.046.27-.776-.024-1.851-2.256-1.965-3.898-2.128zm-9.347-.243c.3 1.731 1.121 2.152 4.172 2.159 2.232 0 2.707-.243 2.032-.972-.536-1.336-4.959-1.545-6.209-1.177zm-163.255.656c-.156.535 1.367 2.469 1.43 2.829-3.168.381-29.376.693-32.863 1.215-7.5024.689-2.8704.754 3.107.465 15.38-.927 35.331-.09 45.307.34.548-.549-.203-1.15-1.462-1.172-3.01-.08-10.831-.486-13.811-.775v-.973c.075-1.177-1.469-3.852-1.713-1.919zm83.764.535c-.813 1.311-.96-.617-.024-.486.263.01.266.1.019.496zm5.812 1.703c.37 2.918-2.746-.548-.838-2.242.409.695.691 1.457.833 2.251zm-4.386-.832c1.186 1.459-1.338 4.046-2.451 4.688-.176-.172.731-3.73 1.24-4.885.443-1.009.709-.965 1.201.209zm-15.643.304c-.334.073-.329.136.036.537.487.53.487.973.134 3.162-.361 1.797-.068 3.246-.76 4.829-.59 1.294-.587 1.25 0 1.25.448 0 .441.071-.149 1.52-.857 2.108-1.681 3.684-2.103 4.034-.974.304-.823-4.62-.923-6.356-.215-4.621 1.17-7.429 3.977-9.324.08.156-.008.314-.222.36zm62.392-.435c-1.038.374-11.274-.244-12.183.394 1.194.831 1.374.807 4.052.972 3.168.093 6.601.71 9.586.487 3.233-.268 3.004-.642 2.87 4.678-.065 2.675-.229 4.806-.394 5.163-.273.591-.361.61-3.11.676-3.411.095-15-1.024-16.293-.173.031.297 1.591 1.265 2.037 1.564 3.898-.015 9.99 0 13.448.221 3.898.227 5.25.039 5.689-.788.219-.972.346-11.366-.324-12.297-.183-.613-4.493-1.318-5.378-.897zm-117.768.795c.229.557.773 2.018 1.141.895.616-.849-1.83-2.748-1.141-.9zm63.935.243c-.389 1.675-.598 3.387-.623 5.107 0 1.585-.11 1.974-.851 1.405-.243-.381.293-4.64.746-6.026s.996-1.768.728-.491zm-6.381.221c.146.73.046 1.153-.212.895-.514-.666-.295-2.757.212-.9zm10.521 1.192c-.345 1.194-.855 2.334-1.515 3.387-.142-.929-.568-3.827-.731-4.258-.09-.243.087-.323.614-.306 1.364.068 2.514-1.824 1.632 1.172zm-2.68-.134c.278 1.456.478 2.927.599 4.404-.458.219-1.686.827-1.998.822-.321.396-.294-10.102 1.399-5.231zm9.647.219.889.156c.392 3.287.392 4.832-.711 9.304-.688 3.246-1.104 5.812-3.268 7.463-.4 0-.529-.608-.731-3.424-.344-4.049 1.16-5.593.955-10.182.105-3.035-.024-3.526.68-4.681.563.571 1.352 1.228 2.186 1.359zm-14.681.691c-.078 3.791-.758-2.016-.219-1.763.141-.005.243.724.219 1.758zm17.722-.353c-.341.34-.349.282-.083-.579.243-.802.307-.861.377-.374.018.169 0 .341-.05.504-.051.163-.134.314-.244.444zm-18.672 10.294c.66.435-1.292 7.164-1.762 6.373-.151-.243-.821-3.618-1.053-5.279-.141-1.28.133-2.572.782-3.684.895-1.031 1.275-6.469 1.314-8.147.112.601.451 10.085.719 10.737zm-1.95-10.311c-.053.23-.129.454-.226.669-.407 1.126-.298-1.647.209-.669zm70.924.214c0 .224.991 1.792 1.133 1.792.292 0 .755-.673.611-.887-.414-.572-1.761-1.28-1.761-.905zm139.132-.071c.488.638-16.384-.041-19.639.703-.543 4.803 1.218 11.568.731 19.398-.244 18.166-.351 26.507-.334 28.029-.443 5.613 6.711 5.802 10.59 6.863 2.458.206 6.559 1.374 9.184.997 1.888-.129 2.765-.068 4.386.304 10.258 1.485 10.994 6.167 10.74-10.416-1.138-8.632-.714-20.74-1.411-28.695-.097-3.917-2.007-13.917-1.815-13.71-.789-3.256-9.037-3.725-12.449-3.473zm-124.042.647c-.548.115.244 1.591.38 2.072 5.811.166 17.342.124 16.669-.163 0-.593-.57-1.459-1.089-1.658-.768-.299-15.507-.53-15.96-.251zm-85.599 2.255c.151.634-1.672 7.217-1.884 4.635.007-1.411 2.444-9.912 1.891-4.64zm12.76-.09c-1.011 3.937-2.951 6.4-2.315.637.132-.457 2.293-2.391 2.471-2.211.054.042-.017.749-.148 1.569zm205.653-.793.882.146c2.042 13.131 1.816 14.902 2.123 28.133.073 11.033 1.481 17.249.421 25.597-.3.741-.784.897-1.995.644-5.875-1.08-6.314-1.882-11.86-1.906-4.188 0-4.21-.329-8.121-.849-2.98-.671-6.681-.362-6.915-3.767-.173-.912-.375-30.003-.548-30.915l-.147-1.371 1.353.257c0-3.253-1.867-13.306-1.075-15.364.176-.277 1.825-.35 9.143-.394 9.841.081 8.983-.678 16.754-.216zm-309.586.574c-.243.386.052 1.082.731 1.702 1.674 1.644.169-2.809-.731-1.702zm77.44.904c.311 1.844 1.588 5.511 2.419 7.86.675 0 2.924.151 1.915-.863-.202-.222-1.822-4.28-2.517-6.323-.29-.841-.443-.973-1.14-1.051-.697-.077-.785-.007-.677.368zm16.237 2.009c-.156 4.438-.83-.192-.716-1.444-.032-2.053.848.055.721 1.434zm6.872-.411c-.28 3.161 1.306 2.918 2.968 1.892.923 1.96-1.596 8.407-3.261 8.998-.509.243-1.679-3.271-2.012-4.378.58-1.597 1.017-3.242 1.306-4.917.297-1.948 1.301-4.382.999-1.605zm61.496-.807c-.524.578-.327 1.34.487 1.875 2.434 1.463 1.046-3.813-.487-1.885zm-57.215 1.293c-.266 1.795-.67 2.432-.67 1.039.012-1.761 1.162-4.071.67-1.048zm-9.398.946c1.155.487 1.345-.316 1.632 2.043.39 2.624.359 2.918-.487 4.501-3.857 7.172-2.042-6.923-2.144-8.645.19.535.638 1.875.999 2.092zm193.426-1.403c.935 3.225 3.065.635 0-.63zm3.106-.403c-1.057.051.342 1.845.629 2.215.361.299.395.221.349-.805-.052-1.213-.295-1.564-.978-1.41zm-195.158.953c-.11.919-.585.972-.889.09-.244-.696-.225-.73.353-.73.521-.009.599.088.536.64zm1.218-.36c-.151.45-.675.525-.675.095-.068-.423.751-.54.663-.095zm187.954.039c-.361.43.521 1.617 1.203 1.617 1.231.204-.468-2.412-1.216-1.617zm-259.201.508c1.893 1.688-5.765.623-9.096.63-9.138-.122-24.272-1.073-32.7341-.338-1.6179.284.6433 1.289.731.729-.039-.209 1.5862-.277 6.1601-.267 14.783-.039 31.761 1.063 42.851 1.194.056-.056-.034-.27-.205-.486-.244-.297-.928-.37-3.411-.37-3.08 0-3.1 0-3.434-.628-.131-.464-1.842-1.755-.874-.464zm228.874-.168c-.11 3.859-1.625 16.361.517 19.284 6.579 2.918 13.796 3.337 22.892 3.682 1.145-2.432.063-5.421-.051-8.545-.207-3.242-.841-9.971-1.019-10.834-1.218-2.83-2.222-2.266-8.613-2.458-5.975.07-6.226-.453-10.234-.548-2.147.399-3.073-1.181-3.504-.581zm-157.008 2.006c-.626 3.162-1.045.455-1.181-.525-.105-.277 1.32-1.478 1.532-1.294.049.032-.117.847-.351 1.819zm12.305-.204c1.672 2.143.758 6.491-.243 8.098-.125.134-.215-1.333-.215-3.465.064-3.405-.168-5.107-1.218-2.143 0 .261-.068.406-.149.324-.131-.406.512-4.786 1.825-2.816zm73.378-.306c.146.656.57 2.385 1.659 2.303 1.805.243 6.077-.102 7.809-.314.768-.017.807-.061.651-.686-.29-1.155-.441-1.216-3.813-1.233-2.342.149-4.991-.501-6.306-.07zm-168.616.569c0 .435 1.159 1.539 1.384 1.315.253-.116-1.116-2.266-1.384-1.315zm244.69.326c4.447-.278 5.478.836 10.631.433 4.53-.185 4.413-.244 4.428 1.736.329 3.711.653 8.511 1.128 12.336.38 2.31.331 2.892-.037 4.443-5.996.068-11.284-.435-15.633-1.427-3.931-.825-2.99.143-3.519-2.585-.144-.871-.3-4.737-.343-8.594-.078-6.858-.071-7.004.38-6.595.397.355.799.394 2.965.253zm-252.841-.161c-.185.299.487 1.384.975 1.569 1.432.418-.622-2.537-.975-1.569zm23.148.256c-.136.646.487 2.298 1.335 1.459.834-.358-.982-2.337-1.342-1.452zm19.786.223c-.958.243-1.158 2.014-1.426 3.003l.885 1.328c1.63 2.729 5.68 2.894 6.074-.542.67-2.118-3.331-4.837-5.541-3.789zm37.224 3.857c-.974 1.78-1.669 2.753-2.76 3.784-.105-.375-1.155-4.589-.468-3.237 2.146 2.974 3.655-4.032 4.276-3.222.044.321-.395 1.437-1.055 2.675zm-34.785-2.614c.382.345 2.475.676 2.09 1.508-.229 1.05-.631 1.626-1.337 1.918-2.681.693-4.754-.34-2.503-3.115.673-.605 1.102-.681 1.75-.311zm-64.9929.163c0 .391.8939 1.459 1.0799 1.269.255-.058-.9946-1.624-1.0872-1.276zm12.9139.498c-.173.214 1.565 2.374 1.462 1.399.256-.193-1.469-2.498-1.469-1.406zm161.063-.202c0 .39 1.301 1.513 1.666 1.443.68-.132.566-.662-.243-1.158-.868-.528-1.431-.64-1.431-.292zm-140.108.827c0 .44 1.173 1.639 1.601 1.639.634 0 .683-.729.093-1.349s-1.701-.822-1.701-.297zm264.133.207c1.14 1.751 1.218 2.05 4.873 2.283 2.924.222 4.143.411 4.143.647 0 .46.714.465 1.169 0 1.219-.729-1.518-2.971-1.913-2.594-.131.08-1.462.034-2.977-.105-4.479-.409-5.302-.447-5.302-.238zm20.063.095c.549 2.993 1.333 4.778-1.406 6.266-8.267 4.781 3.694 4.48 1.462 10.416-.487 2.5-.623 5.231-1.681 7.837l.678 1.253c1.267 1.05-.11 8.081-.892 7.937-.785.53-2.712 1.632-3.114 2.539-.064 1.094 4.018 3.29 5.604 4.277.029.312 1.36 1.814 1.462.844.227-.912-4.174-3.091-5.117-3.735 0-.265.568-.73 2.244-1.834 1.589-1.048 1.642-1.194 2.018-5.42.329-2.279-.293-2.789-1.131-4.455 1.43-3.161 1.014-6.257 2.064-9.418-1.162-3.113-2.693-4.429-4.705-6.323 0-.425 1.235-1.554 2.293-2.094 2.171-1.104 2.595-2.354 1.834-5.408-.065-1.206-1.805-3.823-1.62-2.689zm-311.981 1.33c.863 2.874 1.496 1.999-2.619 2.203-3.7939.025-5.7091.221-5.848.603 1.7057.355 4.423-.272 8.852-.119 5.536-.036 6.384 0 6.509.336.178.462.745.486 1.186.046.283-.535 11.916-.593 12.79-.798 1.74-.153 1.762-.146 2.388.596 1.053 1.216 1.394.362 1.06-.576 2.607-.195 18.762.292 16.326-.764-.244-.279-.707-.326-2.259-.214-3.07.204-18.935.353-22.174.611-4.142.262-7.982.082-8.26-.385-.243-.428-1.145-.43-1.145 0 .117.521-4.961.827-4.63.127-1.016-1.457-2.176-2.337-2.176-1.666zm267.544.73c-.107.182 1.443 1.142 1.462.729 0-.158.224-.207.549-.119 1.254.301-2.089-1.231-2.011-.61zm3.96.17c-1.187.347 1.752 1.537 2.012 1.116.897-.45-1.639-1.627-2.012-1.126zm-230.081.486c0 .674.731 1.637 1.026 1.345.548-.124-1.004-2.449-1.026-1.355zm251.674 1.967c.605 1.117 1.799 1.751 3.992 2.118 2.18.465-.461-2.217-1.626-1.974-.779.112-3.094-1.107-2.366-.153zm-235.738 1.498c-4.247 1.564 3.567 8.733 4.973 3.838.831-1.654-3.011-5.435-4.973-3.847zm210.673.382c.643.771 4.922 1.846 8.772 2.189 1.705.155 1.798.138 1.481-.243-.621-.747-1.657-1.102-3.589-1.216-2.939-.192-4.289-.365-5.665-.73-1.077-.282-1.231-.282-.999 0zm-207.9.664c2.32.766.68 4.231-1.255 3.22-2.027-.696-2.393-1.793-1.001-3.013 1.181-.997.882-.876 2.258-.207zm97.395-.027c-1.029.137-2.069.186-3.107.149-1.552-.073-1.868-.047-.487.683.826.421 1.462.467 6.701.469 3.182 0 5.787-.07 5.787-.16-1.238-1.919-6.689-1.321-8.891-1.141zm4.43 3.045c-.022.292-8.199-.243-6.467.608.509 1.259 8.965 1.055 11.94 1.055-1.401-1.661-4.25-1.787-5.471-1.663zm103.879-.044c.561 1.231 10.578 3.247 10.602 2.32-.524-1.301-6.564-1.303-8.026-1.975-.897-.408-2.573-.632-2.573-.345zm-271.5642.635c-.9622.078-1.9289.085-2.8923.022-1.1525-.115-1.1769-.102-.9039.406.3338.622.1388.603 6.8424.654 6.51.049 17.948.243 26.925.486 12.483-.087 19.79 1.216 18.323-.705-.3-.408-1.462-.44-19.676-.515-12.317-.052-20.068-.178-21.308-.348-1.94-.265-4.06-.265-7.3077 0zm299.9512.216c-1.63.141-1.879.504-.853 1.245.502.363 1.189.453 3.935.511 3.682.08 3.782.017 2.14-1.362-.804-.678-1.411-.724-5.219-.389zm-129.386 4.908c-1.988.347-11.289.06-13.158.651-8.721 1.42 13.677 1.321 15.539.961 2.11-.26 2.132-.27 1.705-.747-1.12-1.114-2.558-1.323-4.083-.865zm130.765.933c-1.298.73-2.083.808-.865 1.617.622.715 3.253-.243 4.072-.16.799 0 .831-.302.107-.973-1.26-1.194-1.676-1.255-3.314-.484zm-265.387 1.703-1.584.121c1.925 1.318 3.392.851 15.534 1.16 5.528.059 5.826 0 4.785-.939.67-.88-18.06-.328-18.735-.342zm155.153.676c-2.051.257-3.599-.355-2.424.972.38.487.753.582 3.372.805 3.36.287 5.246.224 5.38-.177-1.179-2.165-.202-1.583-6.328-1.6zm-19.958 1.145c-.185.185-2.349.328-6.138.404-1.842.036-3.231.163-3.168.282-.129 1.123 8.241.892 10.556.897-.176-.501-.795-2.111-1.25-1.583zm129.651 3.285c-.27.168-.2.358.361.941.573.959 2.68.788 3.921.873.034 1.246.102 3.75.138 4.995-1.43-.972-2.604-.987-4.349-.678-.709-6.189-1.282-5.107-1.15 1.848 0 6.583-.015 6.507 1.445 7.266 1.135.591 5.017 1.751 5.387 1.61.178-.071.385-.418.456-.773.163-.832.027-4.621-.176-4.82-.197-.504.103-7.512.149-9.241-1.367-1.318-5.097-2.599-6.182-2.021zm-110.236.973c-.175.282.422 1.333.616 1.702.79-.065 4.818.243 4.374-.445-.063-1.826-3.835-1.697-4.99-1.257zm112.907 6.566c.536 0 1.04.112 1.126.243.036.064.097.111.168.131s.147.011.212-.024c.319-.078.207 2.077.226 2.495-1.392.12-2.775.326-4.142.615v-4.19c.724.452 1.556.704 2.41.73zm1.927 6.223c.039.897-.031 1.736-.161 1.865-.302.301-3.45-.703-3.871-1.231-.337-.394-.317-1.729-.305-2.358l4.264.09zm-64.91 28.276c.282.329.527.687.731 1.068.276.554 1.355.909 1.355.445 0-.151.293-.195.731-.107 2.534.272-2.422-2.121-3.289-1.928zm1.618 5.761c.644.774 2.386 1.6 3.205 1.523.818-.078.794-.083-.805-.99-1.695-.963-2.997-1.253-2.4-.533zm.368 4.703c.819 1.012 4.045 3.439 5.334 2.476.551-.506-5.049-3.261-5.334-2.476zm-3.289 4.711c-1.133.566-2.088 1.138-2.125 1.271-.029.336 2.298 1.654 2.378.944.383-.46 2.988-1.795 3.502-1.795s.243-.525.845-.486c2.191-.506-1.905-1.802-4.6.066z" fill-rule="evenodd"/><path d="m49.8477 168.795c6.6586 7.115 2.89 16.454 2.8276 25.099.5045 11.073.3868 22.166-.3524 33.225 1.8999-.418 10.3157 1.081 10.0437-1.191-.2989-7.859-.3792-15.721-.3524-23.571-.3791-19.158 1.0927-38.499-1.338-57.533-.776-2.326 7.1359-1.667 8.7414-2.192 11.3192-.89 22.6517-.89 33.9884-.796 19.276-.223 38.48-1.881 57.76-1.664l.027-.569c-15.993-.502-31.839-2.775-47.837-3.873-4.37-1.05-13.9815 1.018-13.125-5.853 2.859-24.806 6.846-49.448 11.462-73.9831.142-1.8144-.861-8.2228.967-8.8187 8.439-.7027 16.886-1.0362 25.346-.4136 19.048.756 37.958 2.4815 56.97 4.038.825.0623 1.062-.1912.99-1.014.188-2.8728-1.784-7.3867 1.726-8.7698 3.528-1.5076 7.025-3.113 10.637-4.4071 15.342-4.9631 30.14-11.0735 45.674-15.414 3.621 4.5273-5.268 3.7757-7.721 5.3366-4.74 1.6277-9.405 3.4955-14.142 5.1454-5.641 2.8062-36.125 9.815-35.081 15.4807-.526 5.5901 1.909 3.6333 6.221 4.2826-1.369-1.2941-2.024-6.0437-.802-7.2356 4.138-2.7038 9.397-3.153 13.999-4.8518 12.002-3.7401 24.48-6.9821 35.679-12.6211 1.517 1.5565.446 4.6428.986 6.7063.129.8895-.045 1.3342-.852 1.6988-13.826 8.0317-31.375 6.6975-44.246 16.25 9.459.3425 17.902-5.7591 26.893-8.2095 6.453-2.3303 12.973-4.5539 19.485-6.6707 1.266-.5337 1.445.4447 1.784 1.1607.637 1.223-.709 1.3653-1.521 1.7033.446 1.9612-.892 3.5577-.95 5.4833.012 1.0064-.046 2.0124-.174 3.0108 18.874-2.6283 36.807-9.4547 55.209-14.1954 0-.1779 0-.3602.022-.5426-11.573-4.1536-23.967-1.7299-35.831-.418-2.564-.1957-3.518-6.5107-4.772-8.6187-.816-2.2235-2.577-3.1441-4.651-3.5933-6.208-.507-2.993 13.3416-3.769 17.344l-1.672.4447c.147-5.8035-.353-11.6916.29-17.4774.419-2.4415 2.466-3.5221 4.821-2.7039 4.879 1.7255 6.105 6.8087 7.836 11.0602.794 1.8411 11.841-1.1563 14.521-.8895 5.653-.4846 11.344-.2816 16.948.6049 3.777.378 8.121 2.3481 7.867 6.7019 0 .378-.772 1.0361-1.298 1.1918-6.36 1.9523-12.907 3.2153-19.227 5.261 1.419 6.0882-6.457 12.0074-12.041 10.3531-3.345-.3469-5.307-4.7986-8.554-4.6296-10.026 1.8723-19.708 8.2095-16.551-7.8003-11.069 3.7756-21.639 7.24-32.441 11.6383 3.439.1778 14.365-2.3081 12.773 3.7623-3.782 20.9017-7.354 41.8613-11.314 62.754-1.414 6.711-3.417 13.293-4.13 20.141-.321 2.028-.362 1.966-2.382 1.997-7.136.178-14.271.129-21.376.507 1.927.845 5.749 0 6.137 2.548-.446 2.046 1.097 8.081-1.338 8.45-3.055.102 1.115-9.641-2.962-9.753-14.432-2.379-29.176-1.334-43.737-1.062-16.056.644-32.112 1.694-48.167 1.721-13.3888-.473-26.7939.131-40.0853 1.805 2.4261 18.274 1.0213 36.832 1.3647 55.225.0446 12.341.7403 24.642.33 36.841 1.1641 1.636 4.6829 3.019 6.7255 3.113 4.17-.69 7.9698 1.908 12.1219 1 7.952-.942 15.9662.321 23.9672.125 2.342 0 4.34.987 6.619-.196.785 1.143 2.426.596 3.884.801 3.568.293 7.136 1.485 10.704 1.152 5.227.555 20.515 2.85 23.637-1.419 1.03-6.226.892-12.87 3.077-18.794 4.434-6.591 9.848-14.142 18.33-15.236 6.748-.227 14.348-3.909 20.73-1.272-16.916 3.113-25.02.409-35.55 16.695-4.094 8.45-2.832 18.536-4.825 27.617-1.008 6.226-2.774 12.247-3.684 18.527 14.548.72 28.82 3.14 43.319 4.5 21.853 2.224 31.147 9.531 33.502 31.735-.134 16.78-5.008 34.026-2.23 50.761.369 1.485.631 2.995.785 4.518.691 3.353 7.056.627 9.214-.036 5.602-2.383 8.92-8.547 9.919-14.333.076-.8-.094-1.121-.839-1.41-6.787-1.685-9.486-10.317-3.942-15.053 2.921-2.513 6.297-4.212 9.656-6 7.702-3.504 14.57-9.783 23.262-10.375 6.86-.685 17.198.689 19.2 8.374 11.279-.831 13.197 2.037 16.292 12.265 2.016 5.889.861 12.008-.272 17.892-.375 6.924-2.092 13.47-4.175 20.056-3.715 14.707-6.761 29.574-9.994 44.388-.183 5.194-10.744 2.521-13.759 1.209-2.529-.671-3.599 4.808-5.164 6.422.682 1.085 2.479 1.814 2.595 2.917.235 3-.287 6.01-1.516 8.757 5.436-2.82 15.163-2.482 17.643 4.002 3.144 9.286-11.573 3.113-15.609 1.779l-.103.298c2.208 1.214 5.713 1.334 7.234 3.3.339 2.522-2.676 2.45-4.563 3.02 1.423 4.402 6.606 4.425 8.746 8.151 1.227 1.49 1.383 4.479 3.417 4.959.691 0 1.007.378.927 1.098.089 2.695.085 4.857-3.157 5.163-3.461.592-6.927 1.192-10.414 1.521-8.537-1.147-16.585-4.639-23.245-10.086l-.303.316c2.305 3.825 9.08 5.781 8.679 10.518-.197 3.922-2.07 8.854-6.69 5.639-11.11-9.082-22.585-17.838-34.43-25.959-2.962-2.325-5.548-5.141-8.251-7.782-1.467-1.054-2.288-3.656-4.259-3.647-2.676.814-5.798.974-8.082 2.62-7.813 7.272-15.599 14.57-23.356 21.893-4.754 4.803-9.281 10.011-15.105 13.546-3.167.4-8.349-3.02-6.035-6.528 1.2-2.495 3.319-4.23 5.294-6.089 9.201-8.302 17.215-17.659 25.091-27.207-3.425-.93-6.605-2.727-10.132-2.393-12.546 3.113-24.94 6.849-37.967 7.178-3.662.556-8.715.444-8.648-4.421-.129-2.103-.152-2.179 1.824-2.917 13.482-2.668 26.844-7.009 40.139-10.255 1.066-5.782 2.716-10.229 5.851-15.165-3.536-.854-7.702.067-9.602-3.42-.183-1.267-1.017-1.561-2.1-1.681-6.721-.983-14.027-1.263-19.704-5.306-4.518-3.46-15.342-6.341-12.871-13.612 4.045-12.533 9.415-5.15 8.375-15.592-.107-2.428-8.589-2.353-10.703-3.949-8.536-2.428 1.155-24.696 3.269-30.481-6.048-.396-10.588-3.02-7.711-9.646 1.199-2.371 1.378-4.274 4.352-2.264-4.937-11.033-10.623-21.466-12.393-33.171-4.545 1.672-9.585.231-14.196.444-.511 6.725-.555 13.477-.134 20.208 1.231 12.328-.299 24.664.169 37.001.148 12.065.75 24.135.054 36.191.085 1.89-1.592 2.344-3.122 3.069 4.197 1.116 8.982 3.78 8.474 8.249-.214 2.98-2.511 6.182-5.133 6.511-6.797 1.307-14.2186-4.074-10.062-11.26-5.664 2.85-10.9891 5.99-16.9251 8.285-5.5347 2.779-10.8732 6.43-16.9475 8.005-4.0585 1.383-8.5808-.303-12.8891.217-8.9929.147-17.9857-.298-26.9197-1.334-.3211-.916-.5887-1.681-.9188-2.632 8.9694.995 17.9954 1.393 27.0179 1.191 2.9748 1.059 5.9183 1.704 9.0892 1.117 4.9059-.663 9.2721-2.829 13.4064-5.297 10.4138-5.408 20.9614-10.397 31.2857-15.979.339-.228.623-.527.835-.875.212-.349.345-.739.392-1.144 1.101-13.63.486-27.265.129-40.914.638-13.341.379-26.585-.254-39.909-.553-2.014 1.998-11.731-.576-11.082-25.2379-2.855-23.7349-4.701-44.2369 10.815-.1788.168-.321.371-.4177.596s-.1458.467-.1442.712c.3969 6.559.8919 13.115 1.0034 19.688.5486 20.141 1.0213 40.198-.669 60.294-.6377 2.798 1.2711 19.19-1.9623 18.31-.2364-24.198 1.0838-48.355-.2988-72.534-.1204-8.103-.0714-16.21-.7136-24.295-.3702-1.681-.4727-3.62 1.0213-4.892 5.3519-3.82 10.5922-7.56 15.9574-11.345-17.9643-1.512-35.6789-4.527-53.6878-4.847-2.23-.48-9.3658.765-8.7236-2.539.1299-.197.3047-.361.5101-.478.2055-.116.4356-.183.6718-.194 14.1556.592 28.2131 2.224 42.3108 3.527 22.0941 2.094 44.3261 4.683 66.4521 4.798-.277-1.032.794-3.864-.892-4.002-15.721-.89-31.4065-2.224-47.0829-3.651-18.8831-1.335-37.7349-3.274-56.5957-4.692-4.1432-.249-8.29091-.445-12.43859-.681-1.1328-.062-1.68137-1-1.61893-2.917 39.27802 1.886 78.49362 6.373 117.74012 9.121.634.067 1.16.049 1.338-.796 3.35-10.286 17.443-9.446 25.894-10.024-.031-8.53 3.756-16.864 3.978-25.491-7.18 1.556-14.302 1.085-21.514.445.259 1.236-.134 2.477 1.186 3.113.152.075.237.444.241.645-.12 2.05 1.044 5.781-2.149 5.75-4.594.444-9.121-.65-13.652-.725-3.809.791-5.04-3.189-6.244-5.862-.597-1.916 2.556-.84 3.751-1.094-.187-.929.633-3.206-.812-3.624-7.171-.889-14.3472-.658-21.5543-.814-6.6898.369-13.1789.445-19.7305-.76-2.6759.289-4.9326-.796-7.3142-1.779-4.0138-1.294-2.2745-5.337-2.6491-8.525-5.111.346-10.4629-.41-15.2929 1.596-14.0263 5.835-27.2052 13.342-40.5402 20.568-1.97126 1.063-2.78739.712-3.59462-1.334l28.25772-15.267c-2.2299-2.086-1.8776-4.892-2.0783-7.431-.446-8.721-1.1016-17.5-1.4807-26.199.9678-3.388 0-6.67-.3479-10.019-1.0391-6.044-.1337-12.092 1.0749-18.056 1.4717-4.745 7.8939-3.331 11.5956-4.945v-.445c-6.1367-.097-12.7418-1.436-16.2963 4.963-2.056 8.228.5574 17.207.8027 25.647 0 12.008-.2096 24.042.1071 36.049-4.335-1.69-1.2354-29.204-1.8152-34.964-.2498-5.523-.5887-11.042-.9276-16.556-.5129-5.542-1.9534-12.275 4.1343-15.25-2.9525-.978-7.4168-.115-9.0982-3.113-.3568-2.121-3.385-10.184-.4772-10.673 6.7924-2.286 14.0575-1.801 21.1086-2.455 2.6224.351 18.0401-2.473 17.5005.503-13.0942 1.191-26.5452.48-39.2781 4.002 2.4396 3.807 14.9049 1.823 19.5833 2.539 7.4346.072 14.8692 0 22.2993-.048 1.1596 0 1.7305.391 1.668 1.716-13.0272.445-26.0724-.133-39.0952-.538-1.7438-.053-3.1888-.792-4.558-2.366.892 2.535.1517 5.746 2.288 7.116 2.6045.787 5.2314 1.334 8.0277 1.08 9.999.031 20.0427.512 30.0595.245 1.1774 0 1.0972.889 1.231 1.579.3211 1.863-5.5258.618-7.118.974zm221.2763 257.936c-.036-.445-.071-.938-.111-1.494 3.202.445 3.121 3.362 4.196 5.439.192-1.997 1.169-3.954.17-5.977-2.23 1.961-4.652-.031-2.565-2.282.834-2.619 8.385-11.118 4.09-12.149-6.044-3.867-13.046-5.985-20.226-6.12-1.908.596-1.569 3.625-2.444 5.279 3.122.085 3.733 6.511 5.553 8.628 2.975 3.486 6.137 9.437 11.364 8.645-.192 2.948-9.7-2.468-10.08-4.581-.664-1.067-1.458-1.454-2.733-.916-4.046 1.806-8.117-.96-11.904-2.272-2.185-.521-6.971 5.737-9.272 7.315 2.154.387 3.639-.138 4.808 1.73 3.001 2.984 5.303 7.28 9.236 9.015 11.186 5.683 16.27 19.247 27.205 25.291 1.731-4.221.692-9.228.58-13.733l-2.493-.178 2.003-1.112c-.861-2.668-4.014-1.69-6.11-2.615l.067-.444h4.656c-.683-1.41-1.213-2.5-1.784-3.656-2.23 2.224-.219-.609-5.709-1.414.022-.196.045-.392.071-.587l3.568-.187c-.41-3.82-.637-8.147-2.136-11.643zm-156.443-377.8325c-.576 19.5676-6.525 38.6638-8.519 58.1735.099 3.856-5.552 27.186-1.48 27.017 35.978 3.171 71.902 6.315 108.067 4.892 1.623-.027 1.574.026 1.868-1.619 1.156-6.8 2.583-13.551 4.117-20.266 3.63-21.511 8.327-42.7596 11.64-64.3284-38.604 2.6505-77.111-7.3512-115.693-3.8691zm96.565 305.8235c.339-1.192.535-2.695 1.338-3.517.272-.181.474-.448.576-.758.101-.31.094-.644-.019-.95-1.097-4.341-.374-8.712.188-12.986 2.096-16.308 7.88-34.243.539-49.964-.544-.934-1.137-1.623-2.39-1.379-5.959 1.072-11.948 2.255-17.969 2.798-20.622 1.903-41.802-.094-60.378-9.62-1.057 11.75 3.408 22.988 10.066 32.545 6.833 10.42 9.138 23.646 9.959 35.809 7.765-.294 3.26 6.226 5.976 9.877-1.083.578-1.15 13.608-.116 14.146.607.445.946.89.277 1.539s-.834 1.49-.794 2.424c.357 4.892.062 9.868.754 14.733l1.039-1.556c.419.805.713 1.369 1.088 2.081 2.854.173 7.136 2.877 9.415-.067 1.186-.854 1.605.272 1.467 1.379l2.747.311.776-1.752h.366c.236.627.477 1.254.758 1.997l4.135.302.637-1.707.446-.032c.219.565.446 1.13.723 1.85l6.079.614c.686-1.588.869-2.33 2.551-1.258l-.656 1.436c2.645-.049 4.906.262 7.35-.445 2.863 1.072 5.97 1.323 8.969.725l2.743 1.619c2.189-13.004 2.024-26.047 1.239-39.162-.361-1.432-1.592-.218-1.092-2.477zm44.982 48.057c5.321 1.721 10.494.889 15.373 3.815 6.454 3.113 12.934 6.257 19.588 8.863 4.71-14.755 6.199-30.521 10.704-45.436 2.841-7.756 3.233-15.966 4.687-24.015.847-3.66.548-7.285-.174-10.789-1.681-4.447-2.252-11.812-7.662-13.146-3.827-.107-6.155-.96-6.471 3.767l1.373.769c-1.079.356-1.703.347-2.493.89-6.27 6.275-15.083 9.339-22.937 13.097.201 6.172 1.57 12.074.705 18.153 1.141-1.036 2.899-1.121 3.367-2.553 2.979-.289 6.025-4.691 8.732-2.877.647.551 1.24.445 2.007.342 19.686-2.944 12.724 7.481-5.557 4.159 5.691 4.545 8.706 8.24 8.537 10.499-3.051-.613-2.427-2.601-4.179-4.62-2.676-2.491-4.242-7.418-8.389-4.341-3.979 1.859-7.319 19.977-9.977 25.162-2.297 6.28-4.928 11.874-7.234 18.261zm-34.43-50.885c-.049-9.668.584-19.448 1.467-29.085.986-9.339 3.242-18.882-.049-28.017-1.436-6.995-4.834-13.381-11.497-16.601-4.67-3.087-10.41-3.353-15.815-4.118-9.214-.948-18.424-2.002-27.598-3.247-35.233-3.46-54.481-1.779-36.125 38.153 3.845 9.179 8.652 17.984 12.461 27.167 1.146 3.038 1.646 6.315 2.493 9.469.607 1.992 2.863.978 4.509 1.187-2.31-12.217-4.357-25.309-11.332-35.902-6.971-9.86-10.918-21.378-9.959-33.487 5.691-.25 9.762 3.851 14.9 5.398 17.394 5.991 36.491 5.831 54.5 3.087 4.272-.258 12.18-3.803 15.498-.841 8.094 11.563 4.941 26.799 3.3 39.838-.99 8.192-4.014 16.561-2.167 24.873.892 1.783 3.75 1.352 5.414 2.126zm-169.988-124.717c-1.7036-4.629-.1828-9.486-.2854-14.266.2542-7.409 0-14.845.223-22.236 0-5.408 1.6234-11.052.892-16.353-2.4351-4.327-3.1219-5.385-8.282-4.198-4.1254 1.432-12.9113.805-14.8736 4.994-1.5665 6.006-1.8927 12.267-.9589 18.403.8384 4.109 1.1863 8.129.5887 12.305.834 9.784 1.0124 19.692 1.9802 29.458 6.9618-1.916 13.4152-7.573 20.716-8.107zm146.471 167.468c-13.522-2.428-27.932-.97-41.401-4.946-.687-.146-.932-.6-.954-1.334-.179-6.226-.446-12.483-.594-18.727-.446-7.115.558-14.36-.753-21.346-1.062-1.664-5.022-.365-6.967-.756 1.08 13.524-1.213 27.319 2.329 40.54.709 2.717 2.047 5.408 2.006 8.223 8.278 5.27 19.133 5.234 28.673 5.848 5.703.033 11.398.464 17.041 1.29 4.206-.374 8.126.391 12.064 1.841.522-2.695 4.188 1.334 7.176.685 1.445-.187 2.23-1.575 2.935-2.838.606-1.058-.116-.987-.491-1.689l1.133-.169c-.125-5.995 1.784-12.075 1.204-17.936 1.762-5.808 1.039-12.265 1.681-18.313.063-1.45.772-3.167-1.409-4.101l1.4-.178c.33-4.642-2.43-8.449-6.395-8.854-.709 1.058-2.417.743-2.502 2.17-.611 4.376.183 8.846.241 13.257.446 8.788-.593 17.491-1.526 26.194-1.275 5.724-8.919.383-12.777.618-.919-.169-1.784-.36-2.114.521zm80.746-80.339c-10.655-.04-18.625 7.191-27.812 11.407-2.833 1.399-5.482 3.139-7.889 5.181-4.193 3.051-3.269 13.244 3.006 12.564 6.573 2.148 12.746-2.251 18.847-4.23 6.873-3.557 14.245-6.275 20.515-10.833 2.873-1.952 4.665-4.612 4.545-8.321.12-5.407-7.466-5.323-11.212-5.768zm-17.22 65.516-.218-.124c-4.188 5.412-8.603 10.562-14.241 14.538-1.877 1.996-2.475.338-4.495.169-6.476 3.161-11.939 8.952-19.722 8.423-.189.013-.373.067-.54.158-.167.09-.313.215-.427.366-2.061 2.882-5.406 4.043-8.831 4.061.107 1.916.205 3.722.317 5.714 4.781-2.223 9.209-7.88 14.771-6.097 2.109.142 4.424 4.536 2.114 6.106-.379.187-.589.707-.95 1.161 12.795 1.521-1.365 14.053-3.568 3.251l-2.97 2.592c3.795.836 11.497 5.519 14.329 1.753 4.407-2.633 7.363-6.854 10.668-10.705.781-.889 1.508-2.059 2.524-2.521 3.185-2.09 2.23-6.822 3.818-9.989 2.395-6.275 5.214-12.456 7.421-18.838zm-49.781 44.783v.249c3.653 2.424-.923 8.961 3.466 12.417 3.318 3.558 6.573 7.227 9.972 10.673 4.201 2.882 8.514 5.612 12.639 8.597 7.8 5.736 15.36 11.816 22.986 17.788 2.627-2.432 3.426-8.694-.651-10.793-3.831-2.148-5.682-6.511-9.281-8.934-4.986-3.309-10.066-6.48-14.445-10.607-6.32-4.278-11.36-10.504-17.916-14.28-1.338-2.321-4.241-4.496-6.77-5.092zm-11.1-1.018c-4.969-4.518-4.612-2.828-10.65-1.961-17.992 2.886-35.296 8.894-52.97 12.923-1.213.396-.406 5.137.865 4.959 10.993.053 21.657-2.499 32.182-5.452 7.701-2.03 15.499-3.673 23.366-4.923 3.505-.009 5.218-3.331 7.207-5.528zm2.123 3.865c-12.559 9.339-20.239 24.05-32.366 34.181-2.925 3.459-10.436 7.195-7.135 12.425 9.892-5.719 16.528-15.934 25.461-23.063 6.016-5.052 11.266-10.869 17.34-15.845 3.835-1.842 3.416-6.733 4.165-10.451-3.202-.067-7.269-2.184-8.509 1.845zm48.501-54.06-.344-.236c-28.329 18.647-25.345-1.961-28.003 28.778 4.964-.112 8.665-3.451 12.621-5.929 3.858-2.299 7.8-4.447 11.636-6.786 1.084-.663 2.453-1.147 2.582-2.891.353-4.304.981-8.609 1.508-12.919zm1.735 11.149c2.943-2.388 4.776-5.71 6.547-9.006 1.052-1.636 2.872-2.584 3.264-4.656 3.229-9.339 4.46-19.199 3.122-29.129-2.546.827-4.509 1.868-6.962 2.277-1.422.084-1.645.289-1.739 1.703-.544 7.16-.638 14.231-2.114 21.32h1.142c-2.542 5.577-2.471 11.474-3.26 17.522zm.147-39.367c-1.976.445-4.906-1.196-4.964 1.432-1.039 7.454-6.244 15.058-14.084 15.952-11.15.476-6.869-2.374-8.581 9.749-.161 2.223 5.887-.001 7.457.418 13.281-1.281 16.408-17.06 20.172-27.533zm-18.772 83.905c.27.253.558.486.861.698 3.483 1.206 5.04 4.99 8.228 6.671 4.362 2.419 6.101 7.64 10.677 9.975 5.588 4.154 9.103 10.589 14.794 14.76 4.161 2.429 8.808 7.023 13.749 6.373 2.757-.507 9.714-.089 8.095-4.607-3.349.209-6.409 1.863-9.763 1.334-3.505-1.334-7.456-2.281-10.074-5.19-7.926-7.662-13.746-18.393-23.856-23.241-2.295-2.27-4.439-4.687-6.418-7.235-1.231-1.664-2.801-1.232-4.241-1.281-.625-.045-1.285 1.058-2.052 1.761zm16.551-400.0016c-14.624 6.0526-29.618 10.82-44.768 15.3606-2.538.5648-4.434 2.5349-3.327 5.221.521 2.3525 2.537 1.8233 4.424 1.7788-.857-1.9967-.812-2.2235.967-3.2998 9.75-6.8086 21.956-6.5773 32.616-11.1446 3.251-1.5076 6.605-2.8106 9.887-4.256 1.351-.8271.343-2.2858.201-3.6422zm19.525 435.5486.214-.347c-4.017-3.248-7.841-6.726-11.453-10.416-2.881-3.148-5.187-6.888-9.089-8.854-3.122-2.224-4.959-5.781-7.756-8.218-3.34-1.49-5.004-4.643-8.3-6.369-1.859 8.325 7.337 13.32 12.876 17.749 1.552 1.436 3.644.316 5.526.596.892 0 1.177.445 1.159 1.414.165 5.074 12.457 12.163 16.823 14.462zm-45.446-82.18c9.245-2.797 17.59-6.813 25.738-11.905.544-.374.923-.942 1.057-1.588 1.026-5.923 2.283-11.825 2.939-17.788-2.953 6.203-4.424 13.154-9.526 18.197-4.719 6.071-12.84 4.492-19.575 5.124-.205 2.583-.406 5.101-.633 7.978zm-89.643-31.575c-2.154 12.425-3.461 12.826 9.811 15.481.174-3.434-.307-6.564-.37-9.962-.093-2.148.245-1.819-2.002-2.668-2.395-.872-4.777-1.81-7.422-2.833zm98.563 73.761c-5.129-1.97-10.12-3.255-15.431-4.501-.678 2.104-1.695 3.905-4.46 4.305 7.363 6.04 7.256 5.417 16.421 6.907.187-2.717 1.708-4.772 3.496-6.693zm-52.431-12.403c8.666-2.197 11.833 5.977 16.413 5.639.994-.814 2.765-1.134 3.568-2.095.062-2.446.04-4.892.04-7.324-6.288 1.107-12.729 1.023-18.986-.249-.352 1.352-.664 2.61-1.035 4.029zm15.137 6.848c-5.182-4.447-8.344-5.616-15.132-5.269-3.412 0-2.988 6.226-4.304 8.761zm92.056 24.198.081-.285c6.168.516 2.716-8.543-1.842-8.396-3.492-.543-6.761-.378-9.549 2.179-4.009 4.109 8.924 5.319 11.31 6.502zm-141.377-48.768.307-.2c-1.297-6.129-1.141-12.266-2.167-18.501-3.532 2.62-5.214 6.671-5.914 10.887.147 3.98 4.781 5.982 7.751 7.814zm-2.609-40.776c-.304-6.533-1.842-12.452-4.014-18.309-3.292 8.48-8.309 15.382 3.991 18.309zm107.705 55.411c-2.769 2.509-3.982 5.782-6.217 8.366 6.061 3.718 6.208 3.833 11.498 1.747-.932-2.254-1.855-4.509-2.81-6.755-1.044-.94-1.884-2.083-2.471-3.358zm-79.461-6.368c-.473 3.558 2.912 2.001 4.959 2.829 7.506 1.565 15.61 2.975 22.888-.334-2.751-1.045-5.797-.178-8.549-.889-6.289-1.971-12.831-.45-19.316-1.606zm31.594 16.29c1.784-.742 5.766.343 5.909-1.921-.094-3.22-.21-6.44-.388-9.655-.914-1.743-3.831-.965-5.521-1.507zm9.731-3.647c2.828.169 3.372 5.026 5.646 3.398 1.619-2.121 9.366-6.862 8.148-9.286-.334-.751-.825-1.432-1.623-1.125-4.228 2.019-7.818 4.545-12.189 7.013zm73.289-372.3487-.312-.2446-16.189 4.7273c6.15 6.4795 13.339 2.6283 16.483-4.4827zm-6.739 419.8587c1.936.333 10.601.164 8.278-3.3-1.784-3.073-2.895-7.009-6.998-7.529.213 3.658-.227 7.324-1.298 10.829zm-67.125-46.745c-.33 1.077-.04 1.926-.553 2.718-3.216 1.169-6.688 1.455-10.053.827-.936-.062-2.957-.352-3.273.889-.072.823.918 1.886 1.784 2.006 4.326.778 11.93 3.233 13.665-2.548.495-1.561-.701-2.491-1.57-3.892zm9.08 14.543c3.925 4.273 27.205 23.494 30.613 23.828-1.303-1.406-3.122-2.326-2.877-4.501-7.488-.609-18.005-10.122-20.069-17.344-1.981-1.548-5.241-1.209-7.667-1.983zm-107.483-188.983c0 4.287-1.204 5.336 3.956 4.972 2.591-.605 9.241 1.418 9.616-2.024.985-2.21-11.507-2.223-13.558-2.948zm15.034 6.871c-5.302-.765-11.818 2.019-16.019-1.926-.522-.6-1.784-.552-2.623.049-.838.6-.076 1.063.116 1.556.562 1.032.825 2.549 2.333 2.224 3.304-.876 16.697 3.166 16.207-1.903zm9.545 84.18-5.205-10.375c-1.869 2.513-2.796 5.052-2.582 7.934.53 2.713 5.378 1.543 7.8 2.441zm140.039 83.225c2.788-.209 5.352 2.263 7.957 1.481.34-.338.78-.557 1.255-.625s.959.019 1.381.247c-2.097-3.113-6.69-2.98-9.71-4.447-.29 1.054-.575 2.139-.892 3.344zm12.635-61.718c-2.769-1.334-11.774 1.112-13.491 2.708 4.487.018 10.298 1.161 13.491-2.708zm-108.375 77.95-.026.32c3.568 1.334 8.656 2.909 10.173-2.063zm98.644 12.755-3.122.529c1.128 1.258 2.595 1.098 3.131-.529z"/><path d="m422.907 274.384c0-5.163 0-10.26.089-15.409 0-1.05-.272-1.455-1.396-1.579-14.432-1.988-28.949-3.113-43.457-4.376-24.039-1.681-48.091-3.164-72.156-4.447-8.126-.796-16.252-1.633-24.405-2.188-1.949-.236-4.41.386-4.459-2.455 22.633.938 45.209 3.82 67.919 3.7 14.24 2.299 28.802 1.587 43.14 3.139 11.538.965 23.142 3.305 34.667 3.469 4.981-1.623 2.23 8.819 2.921 11.625.54 2.25-1.169 9.891 1.235 10.015 2.342-.271 7.136 1.472 7.444-1.881-1.285-20.63 4.348-18.482-13.723-20.902-18.188-2.695-35.862-7.898-54.205-9.93-18.174-2.958-15.686 1.823-16.921-17.384-.344-21.96-.446-43.916-.803-65.894.067-13.342.147-26.683-.25-40.056 0-1.263-.508-1.645-1.739-1.628-8.737.067-17.483.156-26.215-.04-3.43-.302-8.826-.391-8.942-4.94-.116-4.55-.37-9.108-.518-13.6622-.615-10.442 2.422-20.6883 1.338-31.1303-.664-7.2845-1.882-14.6267-1.409-21.9512.424-5.6658 8.92-3.1798 12.778-3.6734 22.598-1.2897 45.232-.0267 67.865-1.143 8.532-.2179 17.068-.0978 25.6-.12 2.284 0 2.823.3691 3.443 2.606 3.095 21.3776-3.18 43.0087-2.016 64.5111l-.664.075c-2.096-16.3386 1.882-32.8643 2.203-49.27-.205-2.6194 1.913-15.2894-1.289-15.1204-23.446-.4936-46.829 1.0362-70.27.4002-8.509-1.1651-16.916 1.1607-25.421.3825-14.811-.9962-9.919 5.2699-9.785 16.0098 2.908 14.9159-1.427 29.8229 0 44.7739.727 1.988-.936 9.526 1.36 9.526 11.052.89 22.607-.822 33.378 1.663-.406-2.521.62-5.447-1.338-7.56 22.357.445 44.478 3.932 66.791 5.119 4.906.182 9.812.191 14.718.218 4.665.729 12.13-2.255 15.02 2.441 2.65 8.112 2.4 16.9 2.101 25.376 9.986.231 20.029.943 30.033 1.708 1.855.071 3.715.182 5.566.129 1.784-.174 1.485 1.418 1.784 2.624-9.473.24-18.986-1.779-28.566-1.575-2.546-.093-5.097-.138-7.644-.222-1.548-.182-1.365 1.183-1.418 2.299-.188 3.113-.518 2.562 2.386 3.113 1.913.351 3.938.089 5.914.138 7.876.347 15.752.289 23.637.245 1.614 0 3.22.333 4.834.444 2.199.165 2.204.143 2.547 2.584-13.121-1.676-26.55.623-39.434-2.433.834 22.606.771 45.162.99 67.78.272 11.287.87 22.561 1.093 33.852.388 3.504-8.737 1.214-11.15 1.832-.045.147-.085.294-.129.445 4.013 3.7 25.693-.116 22.21 7.173-3.946 7.785-8.933 15.001-14.825 21.449-9.508 10.291-14.793 23.343-21.907 35.262-.41.733-.58 1.712-1.815 1.605-3.546 4.305-5.914 10.229-10.079 14.04 1.257 15.565 2.426 31.215 1.819 46.855-.124 23.797-3.666 47.585-.892 71.329 3.345-5.613 8.893-11.198 7.703-18.136-.776-12.363.477-24.655.602-36.996.138-1.868-1.459-29.583 2.564-22.329.098 18.233-.499 36.467-.473 54.656.585 5.892.335 11.811.602 17.722.799 3.144 6.021 1.778 8.568 2.068 3.755-.579 6.997 1.658 10.677 2.072 3.679 1.516 1.115-20.604 1.699-23.57-.379-8.241-.504-16.455.348-24.646.192-9.104 2.578-18.959.303-27.764-.499-.4-.981-.712.134-1.521-7.337 1.717-14.321-.681-21.675-1.032-2.283-.489-2.547-.956-1.164-2.757 2.109-2.757 4.371-5.403 6.547-8.107 5.548-6.631 10.664-13.582 15.641-20.649 1.547-3.233 2.988-2.708 6.052-1.987 2.149.395.535-4.176.999-5.511.14-4.601.312-9.196.517-13.786.054-1.067-.241-1.334-1.338-1.365-2.823-.578-16.461 1.205-16.318-1.81l1.471-.351c.201-2.051-2.636-10.402-.089-10.602.999.164 1.525-.352 2.043-1.135 2.355-3.557 4.79-7.088 7.136-10.673.53-1.627.753-3.758 1.841-5.127 6.204-8.161 10.842-17.371 15.989-26.208-1.387-11.398.312-23.049 1.24-34.505 1.159-11.372-1.021-25.185 9.544-32.718-3.398-.645-7.742-.076-8.108-4.527-.299-5.03-1.173-16.958 5.691-17.678 8.322-1.334 16.742-1.374 25.144-1.445 1.891-.031 2.106.226 1.816 2.552-8.474-.209-17.01.752-25.48 1.366-1.841.16-3.389 1.16-4.7 2.668 5.543 3.887 21.831 2.224 28.989 2.072 2.132-.4 1.851.85 1.9 2.549-7.533.035-26.452 2.299-31.349-3.394-.446 1.993-2.484 13.449.491 13.177 10.423 1.61 20.908-.751 31.273 1.023-.085 1.214-.17 2.362-.25 3.513l-.362-.249c-4.112 7.503-4.281 17.118-5.293 25.603-.032.422-.736.8-1.387 1.072-.223-9.669.999-19.025 4.098-28.133-6.721-3.398-5.146 17.424-6.302 21.306-.789 2.344 1.606 8.316-2.412 7.716-.29-9.028 1.984-17.842 2.194-26.647-5.727 1.81-15.538 2.165-16.216 9.739-2.003 16.01-3.657 32.122-3.421 48.274 5.669.165 11.212 1.107 16.845 1.561 3.091.916 12.599-2.224 11.886 2.913-6.904-.076-14.004-.227-20.881-1.192-2.623.307-8.073-1.499-9.567.89-9.209 15.587-18.994 30.658-28.677 45.926 14.593.4 28.855 2.01 43.346 2.935 2.965.662 10.605-1.979 9.985 2.975-19.079-1.112-38.042-2.802-57.184-3.304.397 2.503.803 5.052 1.235 7.787 12.305-.138 24.57.053 36.741 2.312 4.696.4 9.441.418 14.151.81.923.057 1.249.742 1.137 2.361-9.812.445-19.383-1.281-28.86-3.22.745 5.039 1.445 9.784 2.159 14.623-1.686-.534-1.98-9.993-2.765-13.088-.054.137-.112.275-.174.444-.045-.053-.125-.098-.125-.147.37-2.823-2.988-1.507-4.75-1.97-.682-.053-.941.214-.932.89.067 6.137-.375 12.27-.504 18.402-.067 2.406.04 2.024 1.806 2.38 3.568.773 7.163 1.334 10.704 2.254 2.065.694 2.145 1.081 1.432 3.113-1.437 8.77.535 17.882 1.065 26.683-1.199 16.455.768 32.967-.334 49.364-3.242 7.062-8.291 13.417-12.135 20.213-2.137 2.961-3.055 7.168-6.11 9.299-4.46 1.027-8.715 1.414-12.983-.623-4.607-1.859-16.644 1.926-16.127-5.71-1.592 2.352-3.082 4.189-4.406 6.426-4.817 8.992-16.332 3.704-23.976 2.348-9.513-2.286-19.254-2.224-28.887-3.398-2.591-.2-5.026-.507-7.412-1.525-1.882-.4-1.61-2.224-2.261-3.802l-3.238 3.469c4.125 5.478-4.344 8.649-8.474 5.287-1.338-.996-1.432-2.895-1.82-4.407-1.721-1.966-3.354-2.842-1.605-5.457 3.679-7.115 9.031-13.008 14.334-18.945 1.075-5.376.049-11.278.446-16.814-.558-5.435 1.931-17.642-.767-21.578-11.953-6.769-21.8-19.319-21.408-33.465-2.524-10.86.928-38.58-8.719-43.614-17.581-1.845-35.152-3.913-52.805-4.958-6.266.346-12.327-.467-18.472-1.672-1.338 1.147-3.292.155-4.969.4-1.601 7.778-2.701 15.651-3.291 23.57-4.25 1.223-1.405-11.016-1.338-13.4.446-2.748.892-5.492 1.302-8.24.5-1.641-.562-2.513-1.284-3.94 1.521 0 1.61-.943 1.552-1.97-.219-9.388 2.899-18.358 3.777-27.649-.539-1.912-10.748-1.44-13.174-2.059 2.52 1.183 5.593.792 7.831 2.744-6.649-.889-12.987-2.73-18.784-6.195 8.785 2.26 17.75 2.789 26.714 3.336l.161-.352c-5.076-7.36-17.305-9.855-16.502-20.648 6.873 3.598 10.146 10.914 14.718 16.784 1.137 1.734 3.536 2.223 4.112 4.403 5.798 2.223 11.065 5.781 16.274 9.138-5.468-1.334-9.326-5.781-14.499-7.693-.072.098-.147.196-.219.298l1.369 1.29-.151.213c-1.49-.667-4.197-3.909-4.763-.889-.892 5.247-1.758 10.504-2.641 15.756-2.23 8.53.968 4.349 8.809 5.71 14.271 2.571 28.743 3.602 43.144 4.701 6.721 1.965 13.737.098 20.449 2.108 31.825 3.175 63.821 5.714 95.74 7.636 2.444-.396 6.11 1.098 7.764-1.028 4.839-10.01 12.488-18.109 18.549-27.332 3.225-7.814 9.584-13.786 13.87-21.142-5.882.151-11.314-.338-16.68-2.415.99 6.591-.249 13.617 1.312 19.963.446.521.231 1.37-.527 1.739-3.478 2.282-14.646 2.144-16.176-2.161.299-.854-.098-2.192 1.575-2.228zm-72.821-163.505c2.123 16.623 1.445 33.354 1.521 50.084.187 9.277.696 18.536-.205 27.79 2.011 16.455.178 33.799 2.23 50.569.102.979.446 1.455 1.431 1.588 10.285 1.779 20.81 2.077 30.894 4.892 6.105 1.414 12.487 1.299 18.459 3.455 9.134 2.758 18.781 3.336 28.155 4.852 3.216.814 6.405.307 9.651.325 1.811.111 1.94.035 1.878-1.806-.717-18.085-1.109-36.186-1.177-54.304.16-14.071-.527-28.129-.558-42.195-.196-11.22.709-22.378-.499-33.576-.197-2.193-.192-5.43-2.449-6.515-9.263.142-18.531.044-27.794-.094-20.515-1.801-40.941-4.256-61.537-5.065zm7.952 275.783c-.892-13.929-1.244-27.048-.749-40.967l-2.587-1.117c.865-.324 1.405.111 2.274.236v-1.752c1.758-.236 2.516.262 3.006 1.779 3.377 2.472 8.639 2.374 12.823 2.579 6.631-.222 13.045-1.828 19.507-3.113 3.358-.334 7.345-3.424 10.543-1.619.602 11.305-1.431 22.054-.713 33.261-.634 5.221 1.783 19.078-1.932 22.156-4.41 1.685-9.57 1.778-14.133 3.153-3.363 1.267-6.757.516-10.182.155-6.939-.52-12.327-4.892-17.086-9.494-.673-.574-1.119-1.081-1.008-2.019-.267-1.486-2.274-.961-3.465-1.335.165 19.025-1.119 38.095.214 57.076.299 2.076.62 4.118 3.363 4.34 6.014 1.18 12.121 1.823 18.25 1.921 6.618.369 13.076 1.69 19.489 3.247 17.76 4.816 9.812-1.21 10.945-13.582-1.302-20.275 1.708-40.509 1.672-60.784.866-14.765-1.195-29.298-1.445-44.067-5.838 1.076-10.748 3.206-16.595 3.139-5.584 0-11.114 1.779-16.648.214-7.221-1.552-14.535-2.668-21.47-5.208.522 12.323 1.583 24.611 1.909 36.943.115 4.354 0 8.712-.032 13.066-.169 2.103 2.538 1.321 4.05 1.792zm-7.247-.952c.932-16.392-.602-32.909-.964-49.363-.049-1.455.165-2.909-1.61-3.531-.047-.135-.083-.273-.107-.414 4.407-4.123 7.52-9.65 12.198-13.631 1.258-1.2 2.203-2.721 3.501-4.362-14.312 0-28.017-1.962-42.248-3.736 6.078 6.337 6.243 14.547 6.912 22.774.812 9.526 1.499 19.061 2.262 28.595 1.552 10.047 10.837 19.862 20.073 23.668zm94.745 64.618.54.151c5.521-9.401 10.967-18.981 16.617-28.244.758-14.182-.633-28.306.549-42.471.713-9.339-1.044-18.58-.892-27.83-5.49 8.156-12.122 15.89-15.766 24.904 1.142 12.065-1.008 24.046-1.378 36.067-.12 12.487.375 24.953.33 37.423zm-94.13-117.077c6.69 3.78 14.544 4.394 21.907 6.026 10.985 1.704 22.179-1.183 32.78-3.895 4.522-.81 8.621-10.603 10.704-14.636-15.231-2.726-30.644-3.113-45.937-5.626-2.747-.445-4.75-.231-5.941 2.606-5.021 4.808-9.102 10.055-13.513 15.525zm49.442 10.674c-13.321 3.206-27.174 6.782-40.62 2.188.111 4.473.446 8.974-.411 13.443-.419 2.798.246 5.004 2.757 6.502 4.379 4.937 11.337 4.892 17.545 4.928 23.677-.872 18.856-7.489 20.729-27.061zm-1.481 35.417c-13.352 3.055-26.246-.445-38.912-4.594.165 5.23 1.048 10.5.486 15.783.017.464.216.903.553 1.223 5.468 5.87 13.38 10.94 21.715 8.988 20.302-4.332 15.489-1.13 16.158-21.4zm-150.93-76.678c3.701-1.864 10.503 1.258 15.105.302 22.193 1.041 44.376 3.874 66.528 6.022 22.687 2.886 45.491 3.295 68.165 6.595 6.315.64 12.666.889 18.878 2.317 1.784.569 1.659-2.34 3.457-2.024 1.195-.809 1.578-2.637 2.52-3.927-29.369-.311-58.532-4.447-87.86-6.088-18.285-1.712-36.397-4.282-54.749-5.336-9.201-1.019-18.33-2.709-27.549-3.612-1.819.218-9.031-1.707-9.071.169-.13 5.613-1.084 4.879 4.576 5.582zm214.073 41.963c-3.808-.271-13.683-4.14-16.011-2.628-7.345 10.922-15.681 20.653-23.891 30.979 6.712 1.076 12.84 1.779 19.481.889 2.229.303 2.921-.933 3.777-2.486 4.616-9.534 11.979-17.33 16.658-26.754zm-63.272 23.659c-6.587 3.803-14.213 2.944-21.528 3.496-6.658-.343-13.201-1.228-17.754-6.613.7 3.953-1.258 8.734 3.568 9.988 5.151 1.624 10.398 2.926 15.712 3.9 6.605.796 14.302 1.837 19.757-2.712.838-2.091.357-5.599.259-8.059zm85.679-171.061c-.063-.213-.125-.444-.192-.644-5.602.48-12.809-.57-15.717 5.496-4.906 5.813-4.388 13.24-4.696 20.386-.446 12.63-2.23 25.314-1.485 37.935l.321.053c.54-1.903 1.516-2.562 3.523-2.784-2.016-17.068 1.062-33.959 2.404-50.916.66-7.511 10.548-7.102 15.842-9.526zm-134.006 231.699-.272-.063c-2.078 3.914-14.41 17.131-11.408 20.675 3.51 2.766 8.5-2.748 10.128-5.683 2.712-4.474 1.164-9.975 1.552-14.934zm105.735-168.455-.371-.12c-4.014 4.647-7.662 9.757-11.537 14.573-.705.889-1.637 1.681-1.365 3.073-.067 1.308-2.118 2.388-.321 3.647 5.236-6.538 10.11-13.586 13.594-21.178zm-223.44-9.015-.397.254c-.446 4.447 4.937 11.393 10.298 12.972zm201.493 40.141-.42-.272-11.622 16.797 1.561 2.077c3.514-6.288 6.988-12.447 10.458-18.607zm-10.771-15.268c-1.53 3.914 10.177 3.732 11.297.85zm-83.953 174.775c.545 1.467.268 3.237 1.9 4.1 2.284.734 5.856-1.983 4.255-4.696-1.985.591-3.943 1.494-6.177.6z"/><path d="m268.524 232.478c6.618.925 12.76 3.033 19.516 2.348 3.233-.118 6.47.031 9.678.445 12.118.551 24.231-2.081 36.263.445 1.829-9.9 1.231-20.075.937-30.077.487-10.85.169-21.722-.95-32.526.076-7.116.152-14.196.272-21.293.678-3.047-8.536-2.091-10.637-2.669-27.062-.186-54.031-1.694-81.076-2.286-5.976-.338-11.934-1.009-17.902-1.525-4.553-.396-10.534-1.739-12.3 3.807-5.022-10.229 14.401-5.59 19.401-5.746 9.124.89 18.254.445 27.356 1.223 21.626.827 43.23 1.503 64.887 1.703 3.47.859 10.258-.729 11.06 3.821.892 7.938.272 15.96.348 23.921 1.187 13.057.674 26.198 1.115 39.3-.183 8.089.112 16.232-1.168 24.241-.393 2.046-3.474-.124-4.906.263-14.691-.77-29.297.56-44.001-.129-5.325.266-10.218-1.868-15.436-2.308-1.619-.129-2.386-.885-2.457-2.958z"/><path d="m231.195 126.288 18.379.445.12-.325c-1.338-1.583-1.485-3.428-1.235-5.474-4.714-.587-9.259-.302-13.955-.062-1.552.058-3.122.444-4.553-.641-.562-.444-.781-.849-.54-1.534 2.288-8.387 6.69-12.038 14.191-15.854 5.637-1.045 11.797-.045 17.563.035 3.568.81 3.488 2.531 3.314 5.84l7.247-4.763c-1.525-4.3542 13.001.089 15.65-.627 3.8.311 9.004 0 9.312 5.394.089 5.483.25 10.967.722 16.455.108 3.09-5.32 2.161-7.434 2.895-9.611 1.169-19.289 1-28.954.929-2.863-1.961-6.377-1.539-9.727-1.472-7.403.142-15.408 1.81-22.468-.947-.968-1.032-.081-2.966.102-4.229 1.624-2.789 2.07 2.775 2.266 3.935zm29.587-6.577c4.905.494 9.098.889 13.892 1.219 2.801-1.028 3.88-4.839 5.932-6.934 2.39-4.029 6.605-5.919 10.574-8.089-3.568.253-14.798-2.971-16.055-.494-6.985 2.099-11.039 8.139-14.343 14.298zm-28.825-.52c5.165.311 10.401-.232 15.556.582.843.08 1.338-.209 1.544-1.116 1.396-6.609 6.845-10.486 12.3-13.733-.036-.102-.067-.204-.103-.307-5.28-.049-10.904-1.174-16.02.303-6.341 2.646-11.671 7.28-13.277 14.271zm63.21-11.803c-11.939 4.34-10.739 8.894-18.428 16.228.575 1.609.499 3.677 2.908 2.926 4.17-.543 8.393-.672 12.559-1.143 2.774-.414 3.122-.89 3.224-3.625-.053-4.847-.258-9.508-.263-14.386zm-44.438 18.233c6.11.534 7.899 1.228 7.136-5.723.651-4.599 6.502-7.943 4.999-12.804-7.943 3.798-14.276 13.626-12.135 18.514zm25.479 1.161c-.972-1.49-.575-3.558-2.381-3.833-3.854-.361-7.711-1.054-11.596-.89-2.043.102-2.181.365-2.074 2.402 0 1.209-.053 2.45 1.561 2.33 4.866-.058 9.575 0 14.49-.022z"/><path d="m6.95271 24.7948c4.04959-2.4993 8.78599-1.0318 13.21909-.8895 8.3488 0 16.5728-.5203 24.9172.0934 9.9991 1.8278 5.9674 26.4519 6.9352 34.3234.2006 6.4929.8607 12.9724.9856 19.4653.165 8.752-.2677 17.513-.2008 26.2736 0 .939.6512.863 1.2533.89 15.2973.213 30.5144 1.925 45.7939 2.535 1.0218.044 1.9128 1.307 1.4358 2.192-3.7059.89-8.1167-.445-12.0414-.445-12.0416-.889-24.0832-1.965-36.1249-2.481-.3746 1.459.4906 4.118-1.5743 4.283-2.4619.137-4.946.595-7.3722.391-10.1105-1.997-21.2245 4.963-30.5278.08l.1651-.476c9.8117 1.099 19.1774-2.926 29.0203-1.361 1.7527-.227 7.5506.583 7.6621-1.663.611-1.806-.3836-1.21-1.0972-2.668h.3836c1.5788-12.4924.8919-25.6027.2363-38.2461-.5173-13.3949 1.1953-27.1634-2.0426-40.2825-.1739-.805-.7403-.8539-1.3647-.8895-5.8736.0979-11.7339-1.0895-17.5674-.1156-7.002 1.1607-13.9059-2.7928-20.80975-.1245-.35679.1289-.892-.2802-1.36474-.4448z"/><path d="m222.436 135.481c35.134 2.268 70.399-1.53 105.578.862 2.475.65 11.756-.769 11.185 2.669-.098.889-.78.645-1.293.613-8.157-.493-16.305-1.218-24.467-1.454-29.288-1.378-58.759 2.157-87.939-.889-1.535-.214-2.855.471-3.064-1.801z"/><path d="m7.6083 340.056c12.5902-.592 25.4212 1.863 37.9089-.445 5.1065-5.924 3.715-26.105 4.2234-34.493.0625-1.534-.2586-3.139-2.1317-3.113-3.9827-.115-8.0278-.965-11.9792-.409-9.2899.988-18.6646-.293-27.99462-.351.17394-1.806.31662-1.983 1.91771-1.943 7.70221 0 15.47571.96 23.14671.155 23.5258-1.445 19.1774 5.492 18.8251 24.531-2.0114 13.239 1.998 20.657-15.4668 18.282-9.2185-.516-18.4371-.044-27.65117-.418-1.45392-.027-.36127-1.187-.79833-1.796z"/><path d="m8.67421 346.13-.24526-1.707c11.42175.138 22.69625.72 34.07785 1.383 2.8409.191 5.713 2.312 6.0118 5.172-.1694 5.159-.4459 10.313-.544 15.472-1.2176 34.243 8.2106 28.866-17.2285 29.111-5.5079.267-10.842 1.934-16.2919-.147l.1829-.889c6.2928.48 12.327-1.161 18.6065-.565 3.2111.289 6.4802-.343 9.7047-.111 2.0471.209 2.7651-.218 2.9301-2.286.3836-11.679-.3969-23.392-.0267-35.08-.446-2.028 2.0649-8.805-1.1061-8.4-12.0238-1.005-24.0833-.636-36.07139-1.953z"/><path d="m79.7199 57.5082c0-13.2481-1.9088-26.2872-1.0972-39.5799-.2943-1.7788-.2006-1.8678 1.6145-2.0724 22.0188-1.3786 44.1528-1.2585 66.2028-1.1073 2.751.6671 11.832-1.7344 11.296 2.4282-25.604-.129-51.194-.596-76.7807.756-1.115.0356-1.2622.4447-1.1641 1.5165-.5441 12.6567 1.4629 25.38.446 37.9834z"/><path d="m89.652 127.285c-16.3052-.579-32.4768-.797-48.7686-1.139-4.2369-.889-29.4351 1.334-28.833-2.397 21.6169-.031 43.1715-.142 64.7751.511 2.8231.418 13.1655-.956 12.8265 3.025z"/><path d="m137.502 453.058c-1.896-.533-3.621-.849-5.2-1.507-5.548-2.015-3.122-12.728 3.354-10.745 8.522 1.477 12.46 10.029 1.846 12.252zm-.571-7.609-.598-.213-.722 2.335.446.146z"/><path d="m262.004 490.704c-7.93.289-8.001-12.635-.754-13.475 8.34.013 8.317 12.621.754 13.475z"/><path d="m343.632 133.448c-8.656.174-17.166-1.116-25.782-1.707-1.097-.098-2.007-.538-2.44-1.69-1.449-2.726 7.859-2.802 9.652-3.607 5.351-.889 15.948-1.948 20.626.338l-.182.511c-8.581.521-17.113.072-25.506 2.415v.32c7.158.756 14.383.716 21.572 1.086 1.704.062 1.949.24 2.06 2.334z"/><path d="m317.6 50.7085c.785 8.8455 1.383 18.0822 1.624 27.0522.762 10.4687-.272 20.9863 1.075 31.3923.035.289.691.672 1.097.725 6.141.445 12.188-1.103 18.343-.151 1.338-.027 2.292 2.064.522 2.179-6.101-1.067-12.122.734-18.245-.049-4.295-.569-3.18-6.728-4.014-9.89.66-17.0774-.79-34.1413-.736-51.2007z"/><path d="m363.568 271.791c.335 1.09 1.338 2.695-.178 3.402-4.496 2.464-8.956 4.995-13.447 7.467-6.137 3.015-13.152-.049-19.663-.035-1.642-.16-2.012-.445-2.382-2.286 21.126 2.166 17.483 1.476 35.67-8.548z"/><path d="m54.593 414.51c-.4906-3.446.9856-12.132 5.2448-6.226 1.0793 2.922 1.445 6.102 1.9981 9.152.3746 1.939-.1205 3.612-2.065 4.666-.3746 1.125-1.1863 1.245-2.2299 1.102-4.0139-.409-2.5154-5.843-3.3717-8.658z"/><path d="m438.864 412.589c-1.213-.694-2.712-.636-3.224-1.779-.589-9.05.24-18.104.521-27.154-.446-2.166 3.122-1.077 2.855.333-.147 9.593-1.173 19.061-.152 28.6z"/><path d="m439.756 25.7821c-13.317.0934-26.46.2045-39.728-.4981-4.764-.2402-2.123 5.6612-2.565 8.4496-.446 2.1258.352 5.4389-1.677 6.693-.486-21.5866-4.906-15.2405 17.759-15.912 8.091.0445 16.181-.1067 24.267-.2624 1.271-.0222 1.271-.08 1.944 1.5299z"/><path d="m474.142 79.0504c-14.821.1823-29.551.6671-44.412 1.0318-1.953-.3736-7.769 1.2541-8.251-.9829 15.855-1.2541 31.782.1379 47.561-1.8322 1.801.0044 5.146-1.0762 5.102 1.7833z"/><path d="m166.357 245.882 1.758.445-.652.605c13.237 2.486 27.045 1.089 39.822-2.727 1.731-.809 2.445-.636 3.631 1.068-7.14 4.136-38.948 7.075-44.559.609z"/><path d="m166.616 46.4659c-1.445-1.2808-1.209-2.6683-1.218-4.0025-.165-11.6382.054-23.2632-.446-34.89699 3.568 1.44978 1.891 17.60199 2.391 21.73339-.531 5.6479 1.382 11.8339-.727 17.1661z"/><path d="m445.826 117.176c11.765-1.241 23.37-.342 35.121-.796.04.694.081 1.334.134 2.188-7.742.605-15.382-.333-23.124-.231-2.502-.694-13.045 2.575-12.131-1.161z"/><path d="m167.78 481.44c-.785 1.957-.397 11.563-2.774 10.998-.87-.155-2.034.058-2.029-1.334.397-2.526-.892-14.631 2.515-14.231 2.551 0 1.962 2.726 2.194 4.518z"/><path d="m479.699 87.1265c.026 1.0006-.531.8049-1.129.7071-8.545-1.7077-17.264-1.9834-25.929-2.3837-8.251.2668-16.502.9562-24.722 1.5209-1.257.0845-2.542.2446-3.906-.8271 18.767-1.9523 37.199-2.4149 55.686.9828z"/><path d="m287.478 255.119c-11.64-7.027-21.599-16.771-30.487-27.017.423-.129.847-.258 1.141-.364 8.893 10.095 18.625 19.167 29.551 26.963-.053.142-.12.28-.205.418z"/><path d="m25.2917 353.691c-5.1467.974-10.0927-.77-15.0431.066l-.71361-1.556c2.67591-.325 5.32061.147 8.02771.098 2.6804.253 5.7666-1.214 7.729 1.392z"/><path d="m9.30753 305.777c4.45987 1.054 9.58867-1.299 13.14317 1.97-3.0773.818-6.5069-.054-9.718.089-.6961-.039-1.3721-.247-1.9691-.606-.5971-.358-1.09693-.858-1.45607-1.453z"/><path d="m428.196 382.446c.763.823 1.467 1.921.125 2.464-.634-.29-1.233-.651-1.784-1.076l1.097-1.392z"/><path d="m191.386 292.96c1.467 1.29 1.307 2.308-.571 4.002-1.637-1.565-1.503-2.597.571-4.002z"/><path d="m158.517 293.009c-1.057 2.864-3.207 2.343-2.725-.538.566-1.833 2.06-.401 2.725.538z"/><path d="m174.434 366.41-2.622 2.027c-1.155-2.543.66-4.229 2.622-2.027z"/><path d="m172.503 313.163-1.227-.484-.446 1.449c-1.253-.72-1.574-1.814-.793-3.366l2.783 1.974z"/><path d="m160.493 310.304 2.073 1.432-.089.284c-1.641-.173-1.142 1.29-1.65 1.988-1.307-1.245-1.423-2.01-.334-3.704z"/><path d="m167.156 350.524c-1.695-1.516 1.297-4.229 2.145-2.295z"/><path d="m170.697 384.723c-.999-1.245-.95-1.663.504-3.825l1.231 1.157c-.669.956-.91 2.001-1.735 2.668z"/><path d="m177.436 320.595c1.529 1.094 1.503 2.201-.023 3.758-1.088-1.121-1.088-1.748.023-3.758z"/><path d="m146.439 300.84c-1.271-1.183-1.48-2.041-.807-2.81.674-.77 1.053-.209 1.476.222.843.858.736 1.272-.669 2.588z"/><path d="m179.322 349.884c-1.503-.605-1.472 1.036-2.622 1.605-.723-2.53.736-4.265 2.716-1.997z"/><path d="m165.956 358.609c-1.811-1.298.29-3.789 1.472-2.188.526.805.187 1.294-1.472 2.188z"/><path d="m166.817 372.974c1.199 1.062 1.199 1.062-.669 3.175-1.294-.978-1.057-2.077.669-3.175z"/><path d="m167.459 292.889c1.182.822 1.597 2.446-.027 3.113-.852-.93-1.753-2.597.027-3.113z"/><path d="m165.59 340.7c-1.695-1.418.335-3.722 1.784-2.174.482 1.16-1.03 1.53-1.784 2.174z"/><path d="m153.557 298.795c1.758.96 1.856 1.525.58 3.259-1.262-.711-1.472-1.876-.58-3.259z"/><path d="m190.623 306.862c-1.248-1.156-1.338-1.935-.414-3.558 1.431.849 1.534 1.761.414 3.558z"/><path d="m140.584 291.443c-1.512-.929-1.784-1.779-.981-3.179 1.614.64 1.984 1.747.981 3.179z"/><path d="m155.087 328.982c1.191 1.107 1.124 1.014-.856 2.851-1.231-.956-.937-1.93.856-2.851z"/><path d="m173.564 359.539c-.495-.925-1.338-1.628-.272-2.437.446-.347 1.004-.703 1.517.084.972 1.499-.611 1.521-1.245 2.353z"/><path d="m192.76 341.056.816 1.334-1.588 2.002c-1.088-.814-.843-1.966.772-3.336z"/><path d="m182.226 359.534-1.834 1.463c-1.065-1.183-.891-1.867.661-2.864.365.423.727.859 1.173 1.401z"/><path d="m180.053 302.517 1.548 1.334-.919 2.015c-1.271-1.032-1.471-1.953-.629-3.349z"/><path d="m202.95 296.304c-1.186-1.334-1.181-2.406-.044-3.264 1.311 1.094 1.347 2.143.044 3.264z"/><path d="m200.373 322.374c1.052 1.436.892 2.268-.616 3.455-.896-1.223-.861-1.441.616-3.455z"/><path d="m177.476 384.941c-1.842-1.139-.228-3.958.967-2.49.727 1.231-.552 1.676-.967 2.49z"/><path d="m161.924 322.245c-1.65-1.53-.651-4.105.781-2.504 1.137 1.272-.415 1.61-.781 2.504z"/><path d="m178.399 312.118c1.338.89 1.414 1.517.308 3.429-1.178-1.094-1.263-2.046-.308-3.429z"/><path d="m152.344 309.112c1.276 1.018 1.236 1.605-.147 3.113-1.275-1.032-1.257-1.725.147-3.113z"/><path d="m179.996 297.051c-1.338-1.263-1.512-2.143-.607-3.006 1.646 1.138 1.811 1.863.607 3.006z"/><path d="m181.846 331.054 1.655 1.375-1.4 1.832c-.915-.952-.884-1.957-.255-3.207z"/><path d="m176.245 341.207-2.119.89c-.472-.801-1.132-1.548 0-2.175 1.41-.751 1.303.823 2.119 1.285z"/><path d="m194.753 350.662c1.338 1.103 1.218 1.859-.562 3.264-.887-1.312.139-2.214.562-3.264z"/><path d="m162.972 346.984-1.784 2.024c-1.003-1.926.049-4.109 1.784-2.024z"/><path d="m189.196 366.783c1.338 1.245 1.173 2.019-.477 2.9-.776-1.099-.696-1.664.477-2.9z"/><path d="m174.162 373.796c1.289.89 1.271 1.503-.027 2.909-1.146-.903-1.15-1.397.027-2.909z"/><path d="m168.668 323.232c-1.093-1.472-1.093-1.939-.054-2.864l1.454 1.307z"/><path d="m154.574 320.595c-1.119-1.121-1.146-1.895-.151-2.82 1.489.823 1.543 1.499.151 2.82z"/><path d="m163.824 366.103c-1.155-1.335-.566-3.589 1.07-2.224.83 1.227-.642 1.321-1.07 2.224z"/><path d="m173.596 329.943 1.431 1.503-1.28 1.49c-1.079-.948-1.15-1.668-.151-2.993z"/><path d="m192.291 334.225c-1.409-.444-.771 1.201-1.534 1.414-.843-1.049-.861-1.778.036-3.059l1.663 1.334z"/><path d="m147.122 290.118c.749 1.232 1.873 1.855.892 3.153-1.231-.596-1.878-1.645-.892-3.153z"/><path d="m200.881 306.693c-1.222-1.334-1.289-2.001-.357-3.171 1.16 1.001 1.271 1.837.357 3.171z"/><path d="m165.278 381.988c-.892-.076-1.133 1.588-2.034.382-.593-.791-.316-1.396.959-2.076z"/><path d="m188.853 325.002c-.865-1.063-.892-1.779 0-3.18 1.4 1.165 1.4 1.663 0 3.18z"/><path d="m202.545 378.933c-.964-1.01-.714-1.908 0-2.802 1.534.689 1.556.938 0 2.802z"/><path d="m210.323 307.146c-.17-1.205-.339-2.406-.536-3.824 1.432 1.107 1.762 2.668.995 3.767z"/><path d="m178.756 366.116c1.213 1.107 1.128 1.854-.272 3.113-.785-1.112-.478-2.072.272-3.113z"/><path d="m199.953 333.109 1.156 1.227-.536.258c-.374.614-.752 1.225-1.132 1.833h-.232v-2.855z"/><path d="m197.835 369.843c-.816-1.201-.763-1.819.236-2.642 1.24.672 1.182 1.512-.236 2.642z"/><path d="m171.892 304.665c-.78-.752-1.338-1.534-.665-2.668 1.677.956 1.825 1.534.665 2.668z"/><path d="m160.635 332.482c-1.017-1.134-.99-1.686.116-2.464 1.022.939 1.004 1.361-.116 2.464z"/><path d="m162.968 303.709c-.705-.734-1.338-1.472-.892-2.629 1.815 1.005 2.002 1.553.892 2.629z"/><path d="m186.337 375.331c1.182 1.129 1.173 1.512 0 2.668-1.052-.876-.664-1.708 0-2.668z"/><path d="m199.329 359.223c1.021.978.553 1.743-.089 2.544-.959-1.139-.937-1.557.089-2.544z"/><path d="m191.038 316.085c-.16-.916-.317-1.832-.499-2.868 1.552.569 1.556.582.945 2.77z"/><path d="m144.847 308.116c1.12.587 1.236 1.419.723 2.397-1.338-.703-1.552-1.334-.723-2.397z"/><path d="m208.302 323.156c1.312.859 1.084 1.917.616 3.18-.852-.987-.749-2.019-.616-3.18z"/><path d="m183.497 349.724c1.632.725 1.645.889.227 2.388z"/><path d="m166.241 332.598c-.125-.712-.249-1.428-.397-2.255 1.856.418 1.914.707.397 2.255z"/><path d="m201.43 345.09c.049-.89.093-1.752.151-2.833 1.231.947 1.227 1.605.272 2.855z"/><path d="m159.172 338.321c-.892.329-1.868 1.067-2.082-.329.285-1.325 1.378.076 2.082.329z"/><path d="m209.819 317.259c-.134-.849-.263-1.699-.397-2.548l.388-.062c.678.751 1.097 1.556.562 2.548z"/><path d="m194.847 378.235c-.178-.739-.357-1.477-.558-2.3 1.45.338 1.486.445.558 2.3z"/><path d="m206.969 383.887.267 2.264c-1.369-.401-1.427-.89-.606-2.291z"/><path d="m203.695 351.925c.83.836.544 1.65.049 2.508-.816-.911-.82-1.334-.049-2.508z"/><path d="m186.239 385.368-.74-2.531c1.601.752 1.632.845.74 2.531z"/><path d="m183.305 343.164c-.04-.889-.076-1.556-.121-2.415 1.338.996 1.369 1.406.121 2.415z"/><path d="m200.573 316.628-.446-2.13.42-.089c.606.609 1.168 1.227.553 2.13z"/><path d="m198.954 383.26c.38.671 1.017 1.334.33 2.099l-.446.062-.334-2.161z"/><path d="m205.296 368.251c1.28.489 1.28 1.174.25 1.996-.08-.662-.165-1.329-.25-1.996z"/><path d="m207.228 334.234c.321.712.646 1.423.967 2.13l-.361.192-1.173-2.011z"/><path d="m211.304 334.941c.316.356.629.712 1.012 1.152l-1.391.32v-1.272z"/><path d="m207.896 376.883c.928 1.205.928 1.236 0 1.943z"/><path d="m208.744 343.969c1.271.605.798 1.499.508 2.344-.16-.73-.316-1.459-.508-2.344z"/><path d="m291.046 404.206c-4.99 2.224-14.717-19.603-16.394-23.895 3.568-1.142 3.782 4.737 5.588 6.791 3.287 5.964 6.471 11.776 10.806 17.104z"/><path d="m398.226 444.711c-.263 1.285 1.284 4.385-.602 4.514-1.566-.031-1.847-.245-1.936-1.814.29-1.544-1.195-5.248 1.169-5.302 1.855-.053 1.369 1.17 1.409 2.602z"/><path d="m398.293 434.674c-.772 2.063-1.584 1.654-3.122.711-.179-1.756 1.931-1.645 3.122-.711z"/><path d="m392.994 388.232c-.093-1.179-1.164-2.286.174-3.113 2.641-.503 1.86 2.566-.174 3.113z"/><path d="m386.041 387.076 1.548-.138c-.21 1.125-.437 1.192-1.548.138z"/></g></svg>